<svg xmlns="http://www.w3.org/2000/svg" xmlns:xlink="http://www.w3.org/1999/xlink" width="461.184" height="282.933" viewBox="0 0 461.184 282.933"><defs><linearGradient id="a" x1="0.5" y1="1" x2="0.5" gradientUnits="objectBoundingBox"><stop offset="0" stop-color="gray" stop-opacity="0.251"/><stop offset="0.54" stop-color="gray" stop-opacity="0.122"/><stop offset="1" stop-color="gray" stop-opacity="0.102"/></linearGradient><linearGradient id="b" x1="0.5" y1="1" x2="0.5" y2="0" xlink:href="#a"/></defs><g transform="translate(-0.019 -0.061)"><path d="M480.563,163.689c-.032.592-.075,1.192-.131,1.764a50.644,50.644,0,0,1-3.718,14.95c-6.693,15.888-20.05,27.974-34.322,37.682l-.9.608c-2.582,1.736-5.207,3.412-7.849,5.052l-.211.131-.159.1-.481.294c-.377.238-.759.469-1.136.7l-.632.4-2.9,1.764-2.554,1.537h0l-4.842,2.919c-5.386,3.241-10.744,6.53-15.927,10.077l-.794.556c-.4.258-.751.52-1.12.794q-2.919,2.05-5.743,4.238c-.369.282-.739.572-1.1.87A51.221,51.221,0,0,0,385.987,258.4a24.32,24.32,0,0,0-4.437,10.959c-.794,6.355,1.39,12.484,4.437,18.47,1.962,3.849,4.29,7.642,6.423,11.415.7,1.235,1.37,2.467,1.986,3.7a51.76,51.76,0,0,1,2.967,6.732c1.7,4.929,2.2,9.87.242,14.907-2.141,5.525-6.474,9.064-11.638,11.916-2.78,1.529-5.771,2.856-8.806,4.19A87.15,87.15,0,0,0,364.582,347q-.365.23-.715.477-.751.5-1.47,1.053h0c-.794.6-1.557,1.247-2.3,1.914q-.655.6-1.287,1.231c-.334.326-.667.663-.993,1.009-.628.655-1.239,1.331-1.839,2.014l-.473.548q-.659.794-1.311,1.565c-.564.683-1.116,1.374-1.668,2.069-.794.993-1.589,1.986-2.359,2.979-.23.286-.457.568-.679.854-1.295,1.589-2.594,3.178-3.972,4.647l-.163.175c-3.265,3.5-6.875,6.45-11.427,8.031-10.974,3.813-21.846-1.875-32.391-7.944h0l-.294-.175-.131-.075h0l-.906-.524-.425-.246c-1.076-.628-2.153-1.255-3.225-1.867l-.258-.151c-1.513-.862-3.015-1.7-4.508-2.49q-1.35-.715-2.729-1.366a76.788,76.788,0,0,0-9.366-3.757,80.7,80.7,0,0,0-12.813-3.086q-2.653-.425-5.334-.663c-1.152-.1-2.312-.187-3.471-.242a81.957,81.957,0,0,0-27.839,3.384c-1.227.373-2.451.794-3.658,1.215-.226.075-.449.159-.667.238-1.12.4-2.228.846-3.325,1.311l-.4.163h0a.219.219,0,0,1-.06.032c-5.656,2.431-11.121,5.533-16.758,7.964-.5.214-1,.425-1.509.632a44.277,44.277,0,0,1-10.955,3.043,40.911,40.911,0,0,1-11.678-.294,82.181,82.181,0,0,1-10.3-2.415H170.9l-.214-.068c-.314-.091-.632-.183-.945-.282l-.421-.123-.552-.171c-7.944-2.431-15.908-5.314-24.1-6.1-.4-.036-.794-.072-1.192-.1a50.843,50.843,0,0,0-7.622.056c-7.61.588-15.181,2.645-22.712,4.81l-.469.131c-.4.119-.818.234-1.227.357l-.886.254-1.72.492-.4.111h0c-12.416,3.575-24.706,6.629-36.84,3.09a44.013,44.013,0,0,1-14.466-7.626,79.145,79.145,0,0,1-8.8-8c-2.562-2.665-5-5.458-7.372-8.242-7.888-9.278-15.681-19.125-19.117-30.806A60.175,60.175,0,0,1,19.7,303.359c-.183-2.606-.246-5.227-.242-7.853q0-2.618.075-5.223c.028-1.267.071-2.53.107-3.793v-.608c.024-.588.04-1.192.056-1.764q.512-16.448,1.017-32.9c.226-7.308.469-14.732,2.725-21.687.258-.794.548-1.589.854-2.383.234-.6.485-1.192.739-1.764,5.021-11.284,14.7-20.559,23.292-30.044a112.7,112.7,0,0,0,8.8-10.756c4.1-5.863,7.07-12.083,7.725-19.109.056-.584.1-1.168.115-1.764s.024-1.192,0-1.823c-.211-10.176-5.628-19.935-7.853-29.726a28.918,28.918,0,0,1-.326-13.207c.1-.425.207-.838.326-1.247,3.873-13.2,18.97-20.13,32.749-22.374,14.3-2.324,28.864-1.652,43.143.4q1.414.2,2.82.437c2.955.481,5.886,1.049,8.806,1.66,7.082,1.482,14.1,3.225,21.21,4.667,9.116,1.851,17.365.083,26.457-1.192q6.971-.977,14.005-1.358,5.855-.322,11.721-.23a164.732,164.732,0,0,1,46.428,7.372c10.109,3.15,20.062,7.308,30.338,9.576a67.48,67.48,0,0,0,10.677,1.545c.282.024.568.04.854.052,24.324,1.08,46.678-13.449,70.828-16.174l.814-.087a74.984,74.984,0,0,1,7.992-.4c22.513.1,44.343,9.783,65.021,19.335,6.3,2.907,12.71,5.9,17.83,10.577C477.608,139.56,481.246,151.674,480.563,163.689Z" transform="translate(-19.44 -93.81)" fill="#6c63ff" opacity="0.1"/><path d="M267.154,287.553V230.579h15.7c-.135-.127-.27-.254-.4-.369l-.1-.091-.23-.2c-.1-.087-.195-.171-.3-.25l-.25-.2-.274-.214q-.207-.171-.441-.334a1.067,1.067,0,0,0-.107-.079h-13.6v-3.118c-.127.064-.246.131-.369.2l-.4.246a.021.021,0,0,1-.024.02.48.48,0,0,1-.083.052l-.242.183c-.079.056-.163.115-.242.179-.242.179-.481.4-.715.584l-.234.211-.461.417c-.616.576-1.219,1.172-1.843,1.724-.159.139-.314.278-.477.4a12.129,12.129,0,0,1-1.049.794,5.106,5.106,0,0,1-.453.29l-.262.131-.234.119h0a8.854,8.854,0,0,1-1.72.62v55.667H234.771a.882.882,0,0,0,.048.183c.131.532.258,1.053.4,1.589H258.36v61.065h.361l.4.028.751.064,1.192.139a3.639,3.639,0,0,1,.548.075l.643.091h.087l1.053.179a1.2,1.2,0,0,1,.226.044l.5.091.735.147h0l1.764-.064h0l.242.056.3.068V289.344h36.4v-.131a1.3,1.3,0,0,0,0-.131c.048-.489.091-.969.139-1.454a.178.178,0,0,1,0-.048Zm54.455,0h-1.589v1.775h1.811Zm-17.874,0a.178.178,0,0,0,0,.048c-.048.485-.091.965-.139,1.454q0,.066,0,.131v.131H317.28v-.1l.977-1.66ZM57.1,122.4a28.922,28.922,0,0,0,.326,13.207V121.14C57.3,121.549,57.193,121.962,57.1,122.4ZM282.446,230.21c-.028-.445-.06-.91-.079-1.394h-3.789a2.137,2.137,0,0,0,.036.23c.048.266.083.524.123.794.028.187.056.365.075.544l.024.2h3.63Zm-29.2,58.3h0c-.278-.163-.433-.246-.433-.246.429-.258.846-.492,1.251-.711H169.424a3.574,3.574,0,0,0,.155.4c.032.075.071.159.111.242s.091.187.147.286.167.306.262.469.151.25.23.4h84.249C254.011,288.963,253.554,288.689,253.244,288.51ZM144.9,245.462l.044.1v-.127Zm-.052-8.544a1.74,1.74,0,0,1-.437.4s.171.191.417.528a1.059,1.059,0,0,1-.044.135c-.02.056-.044.115-.068.171l-.04.075a1.218,1.218,0,0,1-.091.155.313.313,0,0,1-.048.06,1.561,1.561,0,0,1-.135.175l-.087.083a1.314,1.314,0,0,1-.179.155l-.052.036h-.024l.024.024.036.044a9.078,9.078,0,0,1,.822,1.152v-3.317c-.032.044-.064.083-.1.127Zm107.747,50.634H240.32c3.253,1.192,8.456.794,11.936.3l.679-.1C252.787,287.66,252.668,287.6,252.593,287.553Zm26.473,1.76a.852.852,0,0,0-.091-.111.566.566,0,0,0-.1-.1,2.308,2.308,0,0,1-.322-.4,2.82,2.82,0,0,1-.151-.242c-.1-.175-.2-.365-.3-.58,0-.024-.024-.052-.04-.079s-.079-.167-.115-.254h-10.8v-56.97h11.685l-.024-.2c-.024-.175-.052-.357-.075-.544-.04-.25-.075-.508-.123-.794a1.622,1.622,0,0,0-.036-.23H267.154v-43.83h-.028a.544.544,0,0,0-.159.02,1.214,1.214,0,0,0-.187.04l-.139.052-.179.071-.115.048c-.286.127-.62.3-1.017.493-.568.266-1.148.528-1.732.771l-.346.143-.429.167c-.282.115-.568.218-.854.314q-.278.1-.572.191c-.342.107-.691.207-1.037.29-.171.048-.342.083-.516.119s-.342.072-.512.1-.342.06-.516.079-.31.044-.469.056v40.887H144.941v-50.09l-.238.143c-1.418.794-3.277.647-4.508,1.7-1.589,1.339-1.307,3.813-.771,5.8.048.175.1.346.143.524a1.042,1.042,0,0,0,.044.167h0a.17.17,0,0,0,.032.119,2.111,2.111,0,0,1,.064.274l.048.226.024.147a.546.546,0,0,1,0,.075,1.626,1.626,0,0,1,.024.195,2.2,2.2,0,0,1,.028.357v.04a3.575,3.575,0,0,1-2.443,3.13,3.468,3.468,0,0,1-1.259.143v37.046h-7.245l.163,1.764h7.09v56.982h-12.77c-.048.294-.1.6-.171.9-.032.131-.064.262-.1.4s-.091.318-.139.477h13.183V301.24h1.35l.834-.028h.369c.5-.024.949-.052,1.346-.075l.532-.04.338-.024.489-.044h.3l.254.048h.091c.175.028.417.068.715.107l.377.056.211.028.6.079h.079l.929.115V289.316h113.4v2.6c.318.242.647.5.969.759l.485.4c.576.481,1.148.993,1.7,1.517l.449.441c.187.187.373.4.548.568l.071.075q.215.234.417.465l.286.334c.163.2.322.4.473.6s.3.4.433.6.274.4.4.612a7.45,7.45,0,0,1,.4.755h.842l.075.159c.036.064.06.127.087.187.115.258.211.508.294.759.032.1.068.2.091.306a2.724,2.724,0,0,1,.079.31,2.156,2.156,0,0,0,.056.278c.012.091.028.187.04.274a1.471,1.471,0,0,1,.028.226v.211a4.665,4.665,0,0,1,0,.667,5.475,5.475,0,0,0,.568-.123V289.316h11.916Zm-134.125-1.76V230.579H258.348v56.974Zm109.117,0H239.025c.373.151.7.3.953.433,3.122,1.589,8.861,1.156,12.6.624l.667-.1c-.278-.163-.433-.246-.433-.246C253.236,288.005,253.653,287.771,254.059,287.553Zm-182.134,0c.369.6.759,1.192,1.16,1.764h49.868c.048-.159.1-.318.139-.477s.071-.258.1-.4c.071-.3.123-.6.171-.9Zm180.668,0H240.32c3.253,1.192,8.456.794,11.936.3l.679-.1C252.787,287.66,252.668,287.6,252.593,287.553Zm-180.668,0c.369.6.759,1.192,1.16,1.764h49.868c.048-.159.1-.318.139-.477s.071-.258.1-.4c.071-.3.123-.6.171-.9Zm207.141,1.76a.852.852,0,0,0-.091-.111.566.566,0,0,0-.1-.1,2.308,2.308,0,0,1-.322-.4,2.82,2.82,0,0,1-.151-.242c-.1-.175-.2-.365-.3-.58,0-.024-.024-.052-.04-.079s-.079-.167-.115-.254h-10.8v-56.97h11.685l-.024-.2c-.024-.175-.052-.357-.075-.544-.04-.25-.075-.508-.123-.794a1.622,1.622,0,0,0-.036-.23H267.154v-43.83h-.028a.544.544,0,0,0-.159.02,1.214,1.214,0,0,0-.187.04l-.139.052-.179.071-.115.048c-.286.127-.62.3-1.017.493-.568.266-1.148.528-1.732.771l-.346.143-.429.167c-.282.115-.568.218-.854.314q-.278.1-.572.191c-.342.107-.691.207-1.037.29-.171.048-.342.083-.516.119s-.342.072-.512.1-.342.06-.516.079-.31.044-.469.056v40.887H144.941v-50.09l-.238.143c-1.418.794-3.277.647-4.508,1.7-1.589,1.339-1.307,3.813-.771,5.8.048.175.1.346.143.524a1.042,1.042,0,0,0,.044.167h0a.232.232,0,0,0,.032.119,2.111,2.111,0,0,1,.064.274l.048.226.024.147a.32.32,0,0,0,.02.135.8.8,0,0,1,0,.135,2.2,2.2,0,0,1,.028.357v.04a3.575,3.575,0,0,1-2.443,3.13,3.468,3.468,0,0,1-1.259.143v37.046h-7.241l.163,1.764h7.09v56.982h-12.77c-.048.294-.1.6-.171.9-.032.131-.064.262-.1.4s-.091.318-.139.477h13.183V301.24h1.35l.834-.028h.369c.5-.024.949-.052,1.346-.075l.532-.04.338-.024.489-.044h.3l.254.048h.091c.175.028.417.068.715.107l.377.056.211.028.6.079h.079l.929.115V289.316h26.612a19.076,19.076,0,0,1-1.128-1.764h-25.5V230.579H258.348v56.974h-4.29c-.4.218-.822.453-1.251.711,0,0,.155.083.433.246h0c.31.179.767.453,1.335.794h3.769v2.6c.318.242.647.5.969.759l.485.4c.576.481,1.148.993,1.7,1.517l.449.441c.187.187.373.4.548.568l.072.075q.214.234.417.465l.286.334c.163.2.322.4.473.6s.3.4.433.6.274.4.4.612a7.444,7.444,0,0,1,.4.755h.842l.075.159c.036.064.06.127.087.187.115.258.211.508.294.759.032.1.068.2.091.306a2.73,2.73,0,0,1,.079.31,2.157,2.157,0,0,0,.056.278c.012.091.028.187.04.274a1.471,1.471,0,0,1,.028.226v.211a4.664,4.664,0,0,1,0,.667,5.471,5.471,0,0,0,.568-.123V289.316h11.916Zm-26.473-1.76H240.32c3.253,1.192,8.456.794,11.936.3l.679-.1C252.787,287.66,252.668,287.6,252.593,287.553Zm29.853-57.343c-.028-.445-.06-.91-.079-1.394h-3.789a2.137,2.137,0,0,0,.036.23c.048.266.083.524.123.794.028.187.056.365.075.544l.024.2h3.63ZM71.933,287.553c.369.6.759,1.192,1.16,1.764h49.86c.048-.159.1-.318.139-.477s.071-.258.1-.4c.071-.3.123-.6.171-.9Zm207.141,1.76a.86.86,0,0,0-.091-.111.568.568,0,0,0-.1-.1,2.307,2.307,0,0,1-.322-.4,2.8,2.8,0,0,1-.151-.242c-.1-.175-.2-.365-.3-.58,0-.024-.024-.052-.04-.079s-.079-.167-.115-.254h-10.8v-56.97h11.685l-.024-.2c-.024-.175-.052-.357-.075-.544-.04-.25-.075-.508-.123-.794a1.622,1.622,0,0,0-.036-.23H267.154v-43.83h-.028a.544.544,0,0,0-.159.02,1.214,1.214,0,0,0-.187.04l-.139.052-.179.071-.115.048c-.286.127-.62.3-1.017.493-.568.266-1.148.528-1.732.771l-.346.143-.429.167c-.282.115-.568.218-.854.314q-.278.1-.572.191c-.342.107-.691.207-1.037.29-.171.048-.342.083-.516.119s-.342.072-.512.1-.342.06-.516.079-.31.044-.469.056v40.887H144.941v-50.09l-.238.143c-1.418.794-3.277.647-4.508,1.7-1.589,1.339-1.307,3.813-.771,5.8.048.175.1.346.143.524a1.042,1.042,0,0,0,.044.167h0a.686.686,0,0,0,.028.123,2.111,2.111,0,0,1,.064.274l.048.226.024.147a.32.32,0,0,0,.02.135.8.8,0,0,1,0,.135,2.2,2.2,0,0,1,.028.357v.04a3.575,3.575,0,0,1-2.443,3.13,3.468,3.468,0,0,1-1.259.143v37.046h-7.237l.163,1.764h7.09v56.978h-12.77c-.048.294-.1.6-.171.9-.032.131-.064.262-.1.4s-.091.318-.139.477h13.183V301.24h1.35l.834-.028h.369c.5-.024.949-.052,1.346-.075l.532-.04.338-.024.489-.044h.3l.254.048h.091c.175.028.417.068.715.107l.377.056.211.028.6.079h.079l.929.115V289.316h26.612a19.076,19.076,0,0,1-1.128-1.764h-25.5V230.579H258.348v56.974h-4.29c-.4.218-.822.453-1.251.711,0,0,.155.083.433.246h0c.31.179.767.453,1.335.794h3.769v2.6c.318.242.647.5.969.759l.485.4c.576.481,1.148.993,1.7,1.517l.449.441c.187.187.373.4.548.568l.072.075q.214.234.417.465l.286.334c.163.2.322.4.473.6s.3.4.433.6.274.4.4.612a7.444,7.444,0,0,1,.4.755h.842l.075.159c.036.064.06.127.087.187.115.258.211.508.294.759.032.1.068.2.091.306a2.73,2.73,0,0,1,.079.31,2.157,2.157,0,0,0,.056.278c.012.091.028.187.04.274a1.471,1.471,0,0,1,.028.226v.211a4.664,4.664,0,0,1,0,.667,5.471,5.471,0,0,0,.568-.123V289.316h11.916Zm3.38-59.1c-.028-.445-.06-.91-.079-1.394h-3.8a2.137,2.137,0,0,0,.036.23c.048.266.083.524.123.794.028.187.056.365.075.544l.024.2h3.63ZM71.941,287.553c.369.6.759,1.192,1.16,1.764h49.852c.048-.159.1-.318.139-.477s.071-.258.1-.4c.071-.3.123-.6.171-.9Zm207.141,1.76a.855.855,0,0,0-.091-.111.568.568,0,0,0-.1-.1,2.306,2.306,0,0,1-.322-.4,2.816,2.816,0,0,1-.151-.242c-.1-.175-.2-.365-.3-.58,0-.024-.024-.052-.04-.079s-.079-.167-.115-.254H267.154v-56.97h11.685l-.024-.2c-.024-.175-.052-.357-.075-.544-.04-.25-.075-.508-.123-.794a1.622,1.622,0,0,0-.036-.23H267.154v-43.83h-.028a.544.544,0,0,0-.159.02,1.214,1.214,0,0,0-.187.04l-.139.052-.179.071-.115.048c-.286.127-.62.3-1.017.493-.568.266-1.148.528-1.732.771l-.346.143-.429.167c-.282.115-.568.218-.854.314q-.278.1-.572.191c-.342.107-.691.207-1.037.29-.171.048-.342.083-.516.119s-.342.072-.512.1-.342.06-.516.079-.31.044-.469.056v40.887H144.941v-50.09l-.238.143c-1.418.794-3.277.647-4.508,1.7-1.589,1.339-1.307,3.813-.771,5.8.048.175.1.346.143.524a1.042,1.042,0,0,0,.044.167h0a.686.686,0,0,0,.028.123,2.111,2.111,0,0,1,.064.274l.048.226.024.147a.32.32,0,0,0,.02.135.8.8,0,0,1,0,.135,2.2,2.2,0,0,1,.028.357v.04a3.575,3.575,0,0,1-2.443,3.13,3.468,3.468,0,0,1-1.259.143v37.046h-7.237l.163,1.764h7.09v56.978h-12.77c-.048.294-.1.6-.171.9-.032.131-.064.262-.1.4s-.091.318-.139.477h13.183V301.24h1.35l.834-.028h.369c.5-.024.949-.052,1.346-.075l.532-.04.338-.024.489-.044h.3l.254.048h.091c.175.028.417.068.715.107l.377.056.211.028.6.079h.079l.929.115V289.316h26.612a19.076,19.076,0,0,1-1.128-1.764h-25.5V230.579H258.348v56.974h-4.29c-.4.218-.822.453-1.251.711,0,0,.155.083.433.246h0c.31.179.767.453,1.335.794h3.769v2.6c.318.242.647.5.969.759l.485.4c.576.481,1.148.993,1.7,1.517l.449.441c.187.187.373.4.548.568l.072.075q.214.234.417.465l.286.334c.163.2.322.4.473.6s.3.4.433.6.274.4.4.612a7.444,7.444,0,0,1,.4.755h.842l.075.159c.036.064.06.127.087.187.115.258.211.508.294.759.032.1.068.2.091.306a2.73,2.73,0,0,1,.079.31,2.157,2.157,0,0,0,.056.278c.012.091.028.187.04.274a1.471,1.471,0,0,1,.028.226v.211a4.664,4.664,0,0,1,0,.667,5.471,5.471,0,0,0,.568-.123V289.316h11.916Zm3.38-59.1c-.028-.445-.06-.91-.079-1.394h-3.805a2.137,2.137,0,0,0,.036.23c.048.266.083.524.123.794.028.187.056.365.075.544l.024.2h3.63ZM71.949,287.553c.369.6.759,1.192,1.16,1.764h49.844c.048-.159.1-.318.139-.477s.071-.258.1-.4c.071-.3.123-.6.171-.9Zm207.141,1.76A.857.857,0,0,0,279,289.2a.568.568,0,0,0-.1-.1,2.3,2.3,0,0,1-.322-.4,2.812,2.812,0,0,1-.151-.242c-.1-.175-.2-.365-.3-.58,0-.024-.024-.052-.04-.079s-.079-.167-.115-.254h-10.82v-56.97h11.685l-.024-.2c-.024-.175-.052-.357-.075-.544-.04-.25-.075-.508-.123-.794a1.622,1.622,0,0,0-.036-.23H267.154v-43.83h-.028a.544.544,0,0,0-.159.02,1.214,1.214,0,0,0-.187.04l-.139.052-.179.071-.115.048c-.286.127-.62.3-1.017.493-.568.266-1.148.528-1.732.771l-.346.143-.429.167c-.282.115-.568.218-.854.314q-.278.1-.572.191c-.342.107-.691.207-1.037.29-.171.048-.342.083-.516.119s-.342.072-.512.1-.342.06-.516.079-.31.044-.469.056v40.887H144.941v-50.09l-.238.143c-1.418.794-3.277.647-4.508,1.7-1.589,1.339-1.307,3.813-.771,5.8.048.175.1.346.143.524a1.042,1.042,0,0,0,.044.167h0a.686.686,0,0,0,.028.123,2.111,2.111,0,0,1,.064.274l.048.226.024.147a.32.32,0,0,0,.02.135.8.8,0,0,1,0,.135,2.2,2.2,0,0,1,.028.357v.04a3.575,3.575,0,0,1-2.443,3.13,3.468,3.468,0,0,1-1.259.143v37.046h-7.237l.163,1.764h7.09v56.978h-12.77c-.048.294-.1.6-.171.9-.032.131-.064.262-.1.4s-.091.318-.139.477h13.183V301.24h1.35l.834-.028h.369c.5-.024.949-.052,1.346-.075l.532-.04.338-.024.489-.044h.3l.254.048h.091c.175.028.417.068.715.107l.377.056.211.028.6.079h.079l.929.115V289.316h26.612a19.076,19.076,0,0,1-1.128-1.764h-25.5V230.579H258.348v56.974h-4.29c-.4.218-.822.453-1.251.711,0,0,.155.083.433.246h0c.31.179.767.453,1.335.794h3.769v2.6c.318.242.647.5.969.759l.485.4c.576.481,1.148.993,1.7,1.517l.449.441c.187.187.373.4.548.568l.072.075q.214.234.417.465l.286.334c.163.2.322.4.473.6s.3.4.433.6.274.4.4.612a7.444,7.444,0,0,1,.4.755h.842l.075.159c.036.064.06.127.087.187.115.258.211.508.294.759.032.1.068.2.091.306a2.73,2.73,0,0,1,.079.31,2.157,2.157,0,0,0,.056.278c.012.091.028.187.04.274a1.471,1.471,0,0,1,.028.226v.211a4.664,4.664,0,0,1,0,.667,5.471,5.471,0,0,0,.568-.123V289.316h11.916Zm3.38-59.1c-.028-.445-.06-.91-.079-1.394h-3.813a2.137,2.137,0,0,0,.036.23c.048.266.083.524.123.794.028.187.056.365.075.544l.024.2h3.63ZM71.957,287.553c.369.6.759,1.192,1.16,1.764h49.836c.048-.159.1-.318.139-.477s.071-.258.1-.4c.071-.3.123-.6.171-.9Zm207.141,1.76a.855.855,0,0,0-.091-.111.568.568,0,0,0-.1-.1,2.31,2.31,0,0,1-.322-.4,2.807,2.807,0,0,1-.151-.242c-.1-.175-.2-.365-.3-.58,0-.024-.024-.052-.04-.079s-.079-.167-.115-.254H267.154v-56.97h11.685l-.024-.2c-.024-.175-.052-.357-.075-.544-.04-.25-.075-.508-.123-.794a1.622,1.622,0,0,0-.036-.23H267.154v-43.83h-.028a.544.544,0,0,0-.159.02,1.214,1.214,0,0,0-.187.04l-.139.052-.179.071-.115.048c-.286.127-.62.3-1.017.493-.568.266-1.148.528-1.732.771l-.346.143-.429.167c-.282.115-.568.218-.854.314q-.278.1-.572.191c-.342.107-.691.207-1.037.29-.171.048-.342.083-.516.119s-.342.072-.512.1-.342.06-.516.079-.31.044-.469.056v40.887H144.941v-50.09l-.238.143c-1.418.794-3.277.647-4.508,1.7-1.589,1.339-1.307,3.813-.771,5.8.048.175.1.346.143.524a1.042,1.042,0,0,0,.044.167h0a.686.686,0,0,0,.028.123,2.111,2.111,0,0,1,.064.274l.048.226.024.147a.32.32,0,0,0,.02.135.8.8,0,0,1,0,.135,2.2,2.2,0,0,1,.028.357v.04a3.575,3.575,0,0,1-2.443,3.13,3.468,3.468,0,0,1-1.259.143v37.046h-7.237l.163,1.764h7.09v56.978h-12.77c-.048.294-.1.6-.171.9-.032.131-.064.262-.1.4s-.091.318-.139.477h13.183V301.24h1.35l.834-.028h.369c.5-.024.949-.052,1.346-.075l.532-.04.338-.024.489-.044h.3l.254.048h.091c.175.028.417.068.715.107l.377.056.211.028.6.079h.079l.929.115V289.316h26.612a19.076,19.076,0,0,1-1.128-1.764h-25.5V230.579H258.348v56.974h-4.29c-.4.218-.822.453-1.251.711,0,0,.155.083.433.246h0c.31.179.767.453,1.335.794h3.769v2.6c.318.242.647.5.969.759l.485.4c.576.481,1.148.993,1.7,1.517l.449.441c.187.187.373.4.548.568l.072.075q.214.234.417.465l.286.334c.163.2.322.4.473.6s.3.4.433.6.274.4.4.612a7.444,7.444,0,0,1,.4.755h.842l.075.159c.036.064.06.127.087.187.115.258.211.508.294.759.032.1.068.2.091.306a2.73,2.73,0,0,1,.079.31,2.157,2.157,0,0,0,.056.278c.012.091.028.187.04.274a1.471,1.471,0,0,1,.028.226v.211a4.664,4.664,0,0,1,0,.667,5.471,5.471,0,0,0,.568-.123V289.316h11.916Zm3.38-59.1c-.028-.445-.06-.91-.079-1.394h-3.821a2.137,2.137,0,0,0,.036.23c.048.266.083.524.123.794.028.187.056.365.075.544l.024.2h3.63ZM71.965,287.553c.369.6.759,1.192,1.16,1.764h49.828c.048-.159.1-.318.139-.477s.071-.258.1-.4c.071-.3.123-.6.171-.9Zm207.141,1.76a.855.855,0,0,0-.091-.111.568.568,0,0,0-.1-.1,2.306,2.306,0,0,1-.322-.4,2.815,2.815,0,0,1-.151-.242c-.1-.175-.2-.365-.3-.58,0-.024-.024-.052-.04-.079s-.079-.167-.115-.254H267.154v-56.97h11.685l-.024-.2c-.024-.175-.052-.357-.075-.544-.04-.25-.075-.508-.123-.794a1.622,1.622,0,0,0-.036-.23H267.154v-43.83h-.028a.544.544,0,0,0-.159.02,1.214,1.214,0,0,0-.187.04l-.139.052-.179.071-.115.048c-.286.127-.62.3-1.017.493-.568.266-1.148.528-1.732.771l-.346.143-.429.167c-.282.115-.568.218-.854.314q-.278.1-.572.191c-.342.107-.691.207-1.037.29-.171.048-.342.083-.516.119s-.342.072-.512.1-.342.06-.516.079-.31.044-.469.056v40.887H144.941v-50.09l-.238.143c-1.418.794-3.277.647-4.508,1.7-1.589,1.339-1.307,3.813-.771,5.8.048.175.1.346.143.524a1.042,1.042,0,0,0,.044.167h0a.686.686,0,0,0,.028.123,2.111,2.111,0,0,1,.064.274l.048.226.024.147a.32.32,0,0,0,.02.135.8.8,0,0,1,0,.135,2.2,2.2,0,0,1,.028.357v.04a3.575,3.575,0,0,1-2.443,3.13,3.468,3.468,0,0,1-1.259.143v37.046h-7.237l.163,1.764h7.09v56.978h-12.77c-.048.294-.1.6-.171.9-.032.131-.064.262-.1.4s-.091.318-.139.477h13.183V301.24h1.35l.834-.028h.369c.5-.024.949-.052,1.346-.075l.532-.04.338-.024.489-.044h.3l.254.048h.091c.175.028.417.068.715.107l.377.056.211.028.6.079h.079l.929.115V289.316h26.612a19.076,19.076,0,0,1-1.128-1.764h-25.5V230.579H258.348v56.974h-4.29c-.4.218-.822.453-1.251.711,0,0,.155.083.433.246h0c.31.179.767.453,1.335.794h3.769v2.6c.318.242.647.5.969.759l.485.4c.576.481,1.148.993,1.7,1.517l.449.441c.187.187.373.4.548.568l.072.075q.214.234.417.465l.286.334c.163.2.322.4.473.6s.3.4.433.6.274.4.4.612a7.444,7.444,0,0,1,.4.755h.842l.075.159c.036.064.06.127.087.187.115.258.211.508.294.759.032.1.068.2.091.306a2.73,2.73,0,0,1,.079.31,2.157,2.157,0,0,0,.056.278c.012.091.028.187.04.274a1.471,1.471,0,0,1,.028.226v.211a4.664,4.664,0,0,1,0,.667,5.471,5.471,0,0,0,.568-.123V289.316h11.916Zm3.38-59.1c-.028-.445-.06-.91-.079-1.394h-3.829a2.137,2.137,0,0,0,.036.23c.048.266.083.524.123.794.028.187.056.365.075.544l.024.2h3.63ZM71.973,287.553c.369.6.759,1.192,1.16,1.764h49.82c.048-.159.1-.318.139-.477s.071-.258.1-.4c.071-.3.123-.6.171-.9Zm207.141,1.76a.857.857,0,0,0-.091-.111.569.569,0,0,0-.1-.1,2.307,2.307,0,0,1-.322-.4,2.8,2.8,0,0,1-.151-.242c-.1-.175-.2-.365-.3-.58,0-.024-.024-.052-.04-.079s-.079-.167-.115-.254H267.154v-56.97h11.685l-.024-.2c-.024-.175-.052-.357-.075-.544-.04-.25-.075-.508-.123-.794a1.622,1.622,0,0,0-.036-.23H267.154v-43.83h-.028a.544.544,0,0,0-.159.02,1.214,1.214,0,0,0-.187.04l-.139.052-.179.071-.115.048c-.286.127-.62.3-1.017.493-.568.266-1.148.528-1.732.771l-.346.143-.429.167c-.282.115-.568.218-.854.314q-.278.1-.572.191c-.342.107-.691.207-1.037.29-.171.048-.342.083-.516.119s-.342.072-.512.1-.342.06-.516.079-.31.044-.469.056v40.887H144.941v-50.09l-.238.143c-1.418.794-3.277.647-4.508,1.7-1.589,1.339-1.307,3.813-.771,5.8.048.175.1.346.143.524a1.042,1.042,0,0,0,.044.167h0a.686.686,0,0,0,.028.123,2.111,2.111,0,0,1,.064.274l.048.226.024.147a.32.32,0,0,0,.02.135.8.8,0,0,1,0,.135,2.2,2.2,0,0,1,.028.357v.04a3.575,3.575,0,0,1-2.443,3.13,3.468,3.468,0,0,1-1.259.143v37.046h-7.237l.163,1.764h7.09v56.978h-12.77c-.048.294-.1.6-.171.9-.032.131-.064.262-.1.4s-.091.318-.139.477h13.183V301.24h1.35l.834-.028h.369c.5-.024.949-.052,1.346-.075l.532-.04.338-.024.489-.044h.3l.254.048h.091c.175.028.417.068.715.107l.377.056.211.028.6.079h.079l.929.115V289.316h26.612a19.076,19.076,0,0,1-1.128-1.764h-25.5V230.579H258.348v56.974h-4.29c-.4.218-.822.453-1.251.711,0,0,.155.083.433.246h0c.31.179.767.453,1.335.794h3.769v2.6c.318.242.647.5.969.759l.485.4c.576.481,1.148.993,1.7,1.517l.449.441c.187.187.373.4.548.568l.072.075q.214.234.417.465l.286.334c.163.2.322.4.473.6s.3.4.433.6.274.4.4.612a7.444,7.444,0,0,1,.4.755h.842l.075.159c.036.064.06.127.087.187.115.258.211.508.294.759.032.1.068.2.091.306a2.73,2.73,0,0,1,.079.31,2.157,2.157,0,0,0,.056.278c.012.091.028.187.04.274a1.471,1.471,0,0,1,.028.226v.211a4.664,4.664,0,0,1,0,.667,5.471,5.471,0,0,0,.568-.123V289.316h11.916Zm3.38-59.1c-.028-.445-.06-.91-.079-1.394h-3.837a2.137,2.137,0,0,0,.036.23c.048.266.083.524.123.794.028.187.056.365.075.544l.024.2h3.63ZM71.98,287.553c.369.6.759,1.192,1.16,1.764h49.812c.048-.159.1-.318.139-.477s.071-.258.1-.4c.071-.3.123-.6.171-.9Zm207.141,1.76a.855.855,0,0,0-.091-.111.569.569,0,0,0-.1-.1,2.308,2.308,0,0,1-.322-.4,2.82,2.82,0,0,1-.151-.242c-.1-.175-.2-.365-.3-.58,0-.024-.024-.052-.04-.079s-.079-.167-.115-.254H267.154v-56.97h11.685l-.024-.2c-.024-.175-.052-.357-.075-.544-.04-.25-.075-.508-.123-.794a1.622,1.622,0,0,0-.036-.23H267.154v-43.83h-.028a.544.544,0,0,0-.159.02,1.214,1.214,0,0,0-.187.04l-.139.052-.179.071-.115.048c-.286.127-.62.3-1.017.493-.568.266-1.148.528-1.732.771-.111.052-.23.1-.346.143s-.286.119-.429.167c-.282.115-.568.218-.854.314q-.278.1-.572.191c-.342.107-.691.207-1.037.29-.171.048-.342.083-.516.119s-.342.072-.512.1-.342.06-.516.079-.31.044-.469.056v40.887H144.941v-50.09l-.238.143c-1.418.794-3.277.647-4.508,1.7-1.589,1.339-1.307,3.813-.771,5.8.048.175.1.346.143.524a1.144,1.144,0,0,1,.044.167.686.686,0,0,0,.028.123,2.111,2.111,0,0,1,.064.274l.048.226.024.147a.32.32,0,0,0,.02.135.8.8,0,0,1,0,.135,2.2,2.2,0,0,1,.028.357v.04a3.575,3.575,0,0,1-2.443,3.13,3.468,3.468,0,0,1-1.259.143v37.046h-7.237l.163,1.764h7.09v56.978h-12.77c-.048.294-.1.6-.171.9-.032.131-.064.262-.1.4s-.091.318-.139.477h13.183V301.24h1.35l.834-.028h.369c.5-.024.949-.052,1.346-.075l.532-.04.338-.024.489-.044h.3l.254.048h.091c.175.028.417.068.715.107l.377.056.211.028.6.079h.079l.929.115V289.316h26.612a19.076,19.076,0,0,1-1.128-1.764h-25.5V230.579H258.348v56.974h-4.29c-.4.218-.822.453-1.251.711,0,0,.155.083.433.246h0c.31.179.767.453,1.335.794h3.769v2.6c.318.242.647.5.969.759l.485.4c.576.481,1.148.993,1.7,1.517.151.143.3.29.449.441s.373.4.548.568l.072.075q.214.234.417.465l.286.334c.163.2.322.4.473.6s.3.4.433.6.274.4.4.612a7.444,7.444,0,0,1,.4.755h.842l.075.159c.036.064.06.127.087.187.115.258.211.508.294.759.032.1.068.2.091.306a2.73,2.73,0,0,1,.079.31,2.157,2.157,0,0,0,.056.278,2.279,2.279,0,0,1,.04.274,1.471,1.471,0,0,1,.028.226v.211a4.664,4.664,0,0,1,0,.667,5.471,5.471,0,0,0,.568-.123V289.316h11.916Zm3.38-59.1c-.028-.445-.06-.91-.079-1.394h-3.845a2.137,2.137,0,0,0,.036.23c.048.266.083.524.123.794.028.187.056.365.075.544l.024.2h3.63Zm103.759-63.067V105.077a74.986,74.986,0,0,0-7.992.4l-.814.087v61.581h-107.7l-.27-.334.4-.5h0l1.76-2.193,1.764-2.193h0l32.355-40.272a67.482,67.482,0,0,1-10.677-1.545l-27.947,34.79v-41.92q-4.409-.858-8.806-1.911v41.892l-40-49.808q-5.855-.1-11.721.23l49.407,61.49,1.279,1.589.278.346-.278.334H144.941V101.26c-2.919-.612-5.851-1.192-8.806-1.66v67.523H65.264c-.02.6-.06,1.192-.115,1.764h70.987v59.929H57.423v-40.8a112.7,112.7,0,0,1-8.8,10.756v30.044H25.33c-.254.584-.5,1.168-.739,1.764h24.03v56.974H20c0,.592-.032,1.192-.056,1.764H48.621v69.2a79.146,79.146,0,0,0,8.8,8v-77.2h78.712v75.578a50.844,50.844,0,0,1,7.622-.056c.4.028.794.064,1.192.1V289.316h113.4v67.126c1.16.056,2.32.139,3.471.242q2.681.238,5.334.663V289.316H377.439v54.813c3.035-1.335,6.037-2.661,8.806-4.19V291.266c-3.046-5.986-5.223-12.1-4.437-18.47a24.32,24.32,0,0,1,4.437-10.959V230.579H428.4l2.9-1.764H386.261V168.907H480.71c.056-.588.1-1.172.131-1.764Zm-8.822,1.764v59.909H267.154v-58.3l.083-.087,1.466-1.517Zm-232.514,0H258.348v59.909H144.941Zm-87.5,118.646V230.579h78.712v56.974Zm87.518,0V230.579H258.348v56.974Zm122.213,0V230.579H377.439v56.974Zm15.292-57.343c-.028-.445-.06-.91-.079-1.394h-3.789a2.137,2.137,0,0,0,.036.23c.048.266.083.524.123.794.028.187.056.365.075.544l.024.2h3.63Zm-3.38,59.1a.853.853,0,0,0-.091-.111.568.568,0,0,0-.1-.1,2.306,2.306,0,0,1-.322-.4,2.823,2.823,0,0,1-.151-.242c-.1-.175-.2-.365-.3-.58,0-.024-.024-.052-.04-.079s-.079-.167-.115-.254h-10.8v-56.97h11.685l-.024-.2c-.024-.175-.052-.357-.075-.544-.04-.25-.075-.508-.123-.794a1.622,1.622,0,0,0-.036-.23H267.154v-43.83h-.028a.544.544,0,0,0-.159.02,1.214,1.214,0,0,0-.187.04l-.139.052-.179.071-.115.048c-.286.127-.62.3-1.017.493-.568.266-1.148.528-1.732.771l-.346.143-.429.167c-.282.115-.568.218-.854.314q-.278.1-.572.191c-.342.107-.691.207-1.037.29-.171.048-.342.083-.516.119s-.342.072-.512.1-.342.06-.516.079-.31.044-.469.056v40.887H144.941v-50.09l-.238.143c-1.418.794-3.277.647-4.508,1.7-1.589,1.339-1.307,3.813-.771,5.8.048.175.1.346.143.524a1.042,1.042,0,0,0,.044.167h0a.686.686,0,0,0,.028.123,2.111,2.111,0,0,1,.064.274l.048.226.024.147a.32.32,0,0,0,.02.135.8.8,0,0,1,0,.135,2.2,2.2,0,0,1,.028.357v.04a3.575,3.575,0,0,1-2.443,3.13,3.468,3.468,0,0,1-1.259.143v37.046h-7.237l.163,1.764h7.09v56.978h-12.77c-.048.294-.1.6-.171.9-.032.131-.064.262-.1.4s-.091.318-.139.477h13.183V301.24h1.35l.834-.028h.369c.5-.024.949-.052,1.346-.075l.532-.04.338-.024.489-.044h.3l.254.048h.091c.175.028.417.068.715.107l.377.056.211.028.6.079h.079l.929.115V289.316h26.612a19.076,19.076,0,0,1-1.128-1.764h-25.5V230.579H258.348v56.974h-4.29c-.4.218-.822.453-1.251.711,0,0,.155.083.433.246h0c.31.179.767.453,1.335.794h3.769v2.6c.318.242.647.5.969.759l.485.4c.576.481,1.148.993,1.7,1.517l.449.441c.187.187.373.4.548.568l.072.075q.214.234.417.465l.286.334c.163.2.322.4.473.6s.3.4.433.6.274.4.4.612a7.444,7.444,0,0,1,.4.755h.842l.075.159c.036.064.06.127.087.187.115.258.211.508.294.759.032.1.068.2.091.306a2.73,2.73,0,0,1,.079.31,2.157,2.157,0,0,0,.056.278c.012.091.028.187.04.274a1.471,1.471,0,0,1,.028.226v.211a4.664,4.664,0,0,1,0,.667,5.471,5.471,0,0,0,.568-.123V289.316h11.916Zm-207.141-1.76c.369.6.759,1.192,1.16,1.764h49.868c.048-.159.1-.318.139-.477s.071-.258.1-.4c.071-.3.123-.6.171-.9ZM282.438,230.21c-.028-.445-.06-.91-.079-1.394h-3.781a2.137,2.137,0,0,0,.036.23c.048.266.083.524.123.794.028.187.056.365.075.544l.024.2h3.63Zm-3.38,59.1a.857.857,0,0,0-.091-.111.568.568,0,0,0-.1-.1,2.306,2.306,0,0,1-.322-.4,2.808,2.808,0,0,1-.151-.242c-.1-.175-.2-.365-.3-.58,0-.024-.024-.052-.04-.079s-.079-.167-.115-.254H267.154v-56.97h11.685l-.024-.2c-.024-.175-.052-.357-.075-.544-.04-.25-.075-.508-.123-.794a1.622,1.622,0,0,0-.036-.23H267.154v-43.83h-.028a.544.544,0,0,0-.159.02,1.214,1.214,0,0,0-.187.04l-.139.052-.179.071-.115.048c-.286.127-.62.3-1.017.493-.568.266-1.148.528-1.732.771l-.346.143-.429.167c-.282.115-.568.218-.854.314q-.278.1-.572.191c-.342.107-.691.207-1.037.29-.171.048-.342.083-.516.119s-.342.072-.512.1-.342.06-.516.079-.31.044-.469.056v40.887H144.941v-50.09l-.238.143c-1.418.794-3.277.647-4.508,1.7-1.589,1.339-1.307,3.813-.771,5.8.048.175.1.346.143.524a1.042,1.042,0,0,0,.044.167h0a.686.686,0,0,0,.028.123,2.111,2.111,0,0,1,.064.274l.048.226.024.147a.32.32,0,0,0,.02.135.8.8,0,0,1,0,.135,2.2,2.2,0,0,1,.028.357v.04a3.575,3.575,0,0,1-2.443,3.13,3.468,3.468,0,0,1-1.259.143v37.046h-7.237l.163,1.764h7.09v56.978h-12.77c-.048.294-.1.6-.171.9-.032.131-.064.262-.1.4s-.091.318-.139.477h13.183V301.24h1.35l.834-.028h.369c.5-.024.949-.052,1.346-.075l.532-.04.338-.024.489-.044h.3l.254.048h.091c.175.028.417.068.715.107l.377.056.211.028.6.079h.079l.929.115V289.316h26.612a19.076,19.076,0,0,1-1.128-1.764h-25.5V230.579H258.348v56.974h-4.29c-.4.218-.822.453-1.251.711,0,0,.155.083.433.246h0c.31.179.767.453,1.335.794h3.769v2.6c.318.242.647.5.969.759l.485.4c.576.481,1.148.993,1.7,1.517l.449.441c.187.187.373.4.548.568l.072.075q.214.234.417.465l.286.334c.163.2.322.4.473.6s.3.4.433.6.274.4.4.612a7.444,7.444,0,0,1,.4.755h.842l.075.159c.036.064.06.127.087.187.115.258.211.508.294.759.032.1.068.2.091.306a2.73,2.73,0,0,1,.079.31,2.157,2.157,0,0,0,.056.278c.012.091.028.187.04.274a1.471,1.471,0,0,1,.028.226v.211a4.664,4.664,0,0,1,0,.667,5.471,5.471,0,0,0,.568-.123V289.316h11.916Zm-207.133-1.76c.369.6.759,1.192,1.16,1.764h49.868c.048-.159.1-.318.139-.477s.071-.258.1-.4c.071-.3.123-.6.171-.9ZM282.438,230.21c-.028-.445-.06-.91-.079-1.394h-3.781a2.137,2.137,0,0,0,.036.23c.048.266.083.524.123.794.028.187.056.365.075.544l.024.2h3.63Zm-3.38,59.1a.857.857,0,0,0-.091-.111.568.568,0,0,0-.1-.1,2.306,2.306,0,0,1-.322-.4,2.808,2.808,0,0,1-.151-.242c-.1-.175-.2-.365-.3-.58,0-.024-.024-.052-.04-.079s-.079-.167-.115-.254H267.154v-56.97h11.685l-.024-.2c-.024-.175-.052-.357-.075-.544-.04-.25-.075-.508-.123-.794a1.622,1.622,0,0,0-.036-.23H267.154v-43.83h-.028a.544.544,0,0,0-.159.02,1.214,1.214,0,0,0-.187.04l-.139.052-.179.071-.115.048c-.286.127-.62.3-1.017.493-.568.266-1.148.528-1.732.771l-.346.143-.429.167c-.282.115-.568.218-.854.314q-.278.1-.572.191c-.342.107-.691.207-1.037.29-.171.048-.342.083-.516.119s-.342.072-.512.1-.342.06-.516.079-.31.044-.469.056v40.887H144.941v-50.09l-.238.143c-1.418.794-3.277.647-4.508,1.7-1.589,1.339-1.307,3.813-.771,5.8.048.175.1.346.143.524a1.042,1.042,0,0,0,.044.167h0a.686.686,0,0,0,.028.123,2.111,2.111,0,0,1,.064.274l.048.226.024.147a.32.32,0,0,0,.02.135.8.8,0,0,1,0,.135,2.2,2.2,0,0,1,.028.357v.04a3.575,3.575,0,0,1-2.443,3.13,3.468,3.468,0,0,1-1.259.143v37.046h-7.237l.163,1.764h7.09v56.978h-12.77c-.048.294-.1.6-.171.9-.032.131-.064.262-.1.4s-.091.318-.139.477h13.183V301.24h1.35l.834-.028h.369c.5-.024.949-.052,1.346-.075l.532-.04.338-.024.489-.044h.3l.254.048h.091c.175.028.417.068.715.107l.377.056.211.028.6.079h.079l.929.115V289.316h26.612a19.076,19.076,0,0,1-1.128-1.764h-25.5V230.579H258.348v56.974h-4.29c-.4.218-.822.453-1.251.711,0,0,.155.083.433.246h0c.31.179.767.453,1.335.794h3.769v2.6c.318.242.647.5.969.759l.485.4c.576.481,1.148.993,1.7,1.517l.449.441c.187.187.373.4.548.568l.072.075q.214.234.417.465l.286.334c.163.2.322.4.473.6s.3.4.433.6.274.4.4.612a7.444,7.444,0,0,1,.4.755h.842l.075.159c.036.064.06.127.087.187.115.258.211.508.294.759.032.1.068.2.091.306a2.73,2.73,0,0,1,.079.31,2.157,2.157,0,0,0,.056.278c.012.091.028.187.04.274a1.471,1.471,0,0,1,.028.226v.211a4.664,4.664,0,0,1,0,.667,5.471,5.471,0,0,0,.568-.123V289.316h11.916Zm-207.133-1.76c.369.6.759,1.192,1.16,1.764h49.868c.048-.159.1-.318.139-.477s.071-.258.1-.4c.071-.3.123-.6.171-.9ZM282.438,230.21c-.028-.445-.06-.91-.079-1.394h-3.781a2.137,2.137,0,0,0,.036.23c.048.266.083.524.123.794.028.187.056.365.075.544l.024.2h3.63Zm-3.38,59.1a.857.857,0,0,0-.091-.111.568.568,0,0,0-.1-.1,2.306,2.306,0,0,1-.322-.4,2.808,2.808,0,0,1-.151-.242c-.1-.175-.2-.365-.3-.58,0-.024-.024-.052-.04-.079s-.079-.167-.115-.254H267.154v-56.97h11.685l-.024-.2c-.024-.175-.052-.357-.075-.544-.04-.25-.075-.508-.123-.794a1.622,1.622,0,0,0-.036-.23H267.154v-43.83h-.028a.544.544,0,0,0-.159.02,1.214,1.214,0,0,0-.187.04l-.139.052-.179.071-.115.048c-.286.127-.62.3-1.017.493-.568.266-1.148.528-1.732.771l-.346.143-.429.167c-.282.115-.568.218-.854.314q-.278.1-.572.191c-.342.107-.691.207-1.037.29-.171.048-.342.083-.516.119s-.342.072-.512.1-.342.06-.516.079-.31.044-.469.056v40.887H144.941v-50.09l-.238.143c-1.418.794-3.277.647-4.508,1.7-1.589,1.339-1.307,3.813-.771,5.8.048.175.1.346.143.524a1.042,1.042,0,0,0,.044.167h0a.686.686,0,0,0,.028.123,2.111,2.111,0,0,1,.064.274l.048.226.024.147a.32.32,0,0,0,.02.135.8.8,0,0,1,0,.135,2.2,2.2,0,0,1,.028.357v.04a3.575,3.575,0,0,1-2.443,3.13,3.468,3.468,0,0,1-1.259.143v37.046h-7.237l.163,1.764h7.09v56.978h-12.77c-.048.294-.1.6-.171.9-.032.131-.064.262-.1.4s-.091.318-.139.477h13.183V301.24h1.35l.834-.028h.369c.5-.024.949-.052,1.346-.075l.532-.04.338-.024.489-.044h.3l.254.048h.091c.175.028.417.068.715.107l.377.056.211.028.6.079h.079l.929.115V289.316h26.612a19.076,19.076,0,0,1-1.128-1.764h-25.5V230.579H258.348v56.974h-4.29c-.4.218-.822.453-1.251.711,0,0,.155.083.433.246h0c.31.179.767.453,1.335.794h3.769v2.6c.318.242.647.5.969.759l.485.4c.576.481,1.148.993,1.7,1.517l.449.441c.187.187.373.4.548.568l.072.075q.214.234.417.465l.286.334c.163.2.322.4.473.6s.3.4.433.6.274.4.4.612a7.444,7.444,0,0,1,.4.755h.842l.075.159c.036.064.06.127.087.187.115.258.211.508.294.759.032.1.068.2.091.306a2.73,2.73,0,0,1,.079.31,2.157,2.157,0,0,0,.056.278c.012.091.028.187.04.274a1.471,1.471,0,0,1,.028.226v.211a4.664,4.664,0,0,1,0,.667,5.471,5.471,0,0,0,.568-.123V289.316h11.916Zm-207.133-1.76c.369.6.759,1.192,1.16,1.764h49.868c.048-.159.1-.318.139-.477s.071-.258.1-.4c.071-.3.123-.6.171-.9ZM282.438,230.21c-.028-.445-.06-.91-.079-1.394h-3.781a2.137,2.137,0,0,0,.036.23c.048.266.083.524.123.794.028.187.056.365.075.544l.024.2h3.63Zm-3.38,59.1a.857.857,0,0,0-.091-.111.568.568,0,0,0-.1-.1,2.306,2.306,0,0,1-.322-.4,2.808,2.808,0,0,1-.151-.242c-.1-.175-.2-.365-.3-.58,0-.024-.024-.052-.04-.079s-.079-.167-.115-.254H267.154v-56.97h11.685l-.024-.2c-.024-.175-.052-.357-.075-.544-.04-.25-.075-.508-.123-.794a1.622,1.622,0,0,0-.036-.23H267.154v-43.83h-.028a.544.544,0,0,0-.159.02,1.214,1.214,0,0,0-.187.04l-.139.052-.179.071-.115.048c-.286.127-.62.3-1.017.493-.568.266-1.148.528-1.732.771l-.346.143-.429.167c-.282.115-.568.218-.854.314q-.278.1-.572.191c-.342.107-.691.207-1.037.29-.171.048-.342.083-.516.119s-.342.072-.512.1-.342.06-.516.079-.31.044-.469.056v40.887H144.941v-50.09l-.238.143c-1.418.794-3.277.647-4.508,1.7-1.589,1.339-1.307,3.813-.771,5.8.048.175.1.346.143.524a1.042,1.042,0,0,0,.044.167h0a.686.686,0,0,0,.028.123,2.111,2.111,0,0,1,.064.274l.048.226.024.147a.32.32,0,0,0,.02.135.8.8,0,0,1,0,.135,2.2,2.2,0,0,1,.028.357v.04a3.575,3.575,0,0,1-2.443,3.13,3.468,3.468,0,0,1-1.259.143v37.046h-7.237l.163,1.764h7.09v56.978h-12.77c-.048.294-.1.6-.171.9-.032.131-.064.262-.1.4s-.091.318-.139.477h13.183V301.24h1.35l.834-.028h.369c.5-.024.949-.052,1.346-.075l.532-.04.338-.024.489-.044h.3l.254.048h.091c.175.028.417.068.715.107l.377.056.211.028.6.079h.079l.929.115V289.316h26.612a19.076,19.076,0,0,1-1.128-1.764h-25.5V230.579H258.348v56.974h-4.29c-.4.218-.822.453-1.251.711,0,0,.155.083.433.246h0c.31.179.767.453,1.335.794h3.769v2.6c.318.242.647.5.969.759l.485.4c.576.481,1.148.993,1.7,1.517l.449.441c.187.187.373.4.548.568l.072.075q.214.234.417.465l.286.334c.163.2.322.4.473.6s.3.4.433.6.274.4.4.612a7.444,7.444,0,0,1,.4.755h.842l.075.159c.036.064.06.127.087.187.115.258.211.508.294.759.032.1.068.2.091.306a2.73,2.73,0,0,1,.079.31,2.157,2.157,0,0,0,.056.278c.012.091.028.187.04.274a1.471,1.471,0,0,1,.028.226v.211a4.664,4.664,0,0,1,0,.667,5.471,5.471,0,0,0,.568-.123V289.316h11.916Zm-207.133-1.76c.369.6.759,1.192,1.16,1.764h49.868c.048-.159.1-.318.139-.477s.071-.258.1-.4c.071-.3.123-.6.171-.9ZM282.438,230.21c-.028-.445-.06-.91-.079-1.394h-3.781a2.137,2.137,0,0,0,.036.23c.048.266.083.524.123.794.028.187.056.365.075.544l.024.2h3.63Zm-3.38,59.1a.857.857,0,0,0-.091-.111.568.568,0,0,0-.1-.1,2.306,2.306,0,0,1-.322-.4,2.808,2.808,0,0,1-.151-.242c-.1-.175-.2-.365-.3-.58,0-.024-.024-.052-.04-.079s-.079-.167-.115-.254H267.154v-56.97h11.685l-.024-.2c-.024-.175-.052-.357-.075-.544-.04-.25-.075-.508-.123-.794a1.622,1.622,0,0,0-.036-.23H267.154v-43.83h-.028a.544.544,0,0,0-.159.02,1.214,1.214,0,0,0-.187.04l-.139.052-.179.071-.115.048c-.286.127-.62.3-1.017.493-.568.266-1.148.528-1.732.771l-.346.143-.429.167c-.282.115-.568.218-.854.314q-.278.1-.572.191c-.342.107-.691.207-1.037.29-.171.048-.342.083-.516.119s-.342.072-.512.1-.342.06-.516.079-.31.044-.469.056v40.887H144.941v-50.09l-.238.143c-1.418.794-3.277.647-4.508,1.7-1.589,1.339-1.307,3.813-.771,5.8.048.175.1.346.143.524a1.042,1.042,0,0,0,.044.167h0a.686.686,0,0,0,.028.123,2.111,2.111,0,0,1,.064.274l.048.226.024.147a.32.32,0,0,0,.02.135.8.8,0,0,1,0,.135,2.2,2.2,0,0,1,.028.357v.04a3.575,3.575,0,0,1-2.443,3.13,3.468,3.468,0,0,1-1.259.143v37.046h-7.237l.163,1.764h7.09v56.978h-12.77c-.048.294-.1.6-.171.9-.032.131-.064.262-.1.4s-.091.318-.139.477h13.183V301.24h1.35l.834-.028h.369c.5-.024.949-.052,1.346-.075l.532-.04.338-.024.489-.044h.3l.254.048h.091c.175.028.417.068.715.107l.377.056.211.028.6.079h.079l.929.115V289.316h26.612a19.076,19.076,0,0,1-1.128-1.764h-25.5V230.579H258.348v56.974h-4.29c-.4.218-.822.453-1.251.711,0,0,.155.083.433.246h0c.31.179.767.453,1.335.794h3.769v2.6c.318.242.647.5.969.759l.485.4c.576.481,1.148.993,1.7,1.517l.449.441c.187.187.373.4.548.568l.072.075q.214.234.417.465l.286.334c.163.2.322.4.473.6s.3.4.433.6.274.4.4.612a7.444,7.444,0,0,1,.4.755h.842l.075.159c.036.064.06.127.087.187.115.258.211.508.294.759.032.1.068.2.091.306a2.73,2.73,0,0,1,.079.31,2.157,2.157,0,0,0,.056.278c.012.091.028.187.04.274a1.471,1.471,0,0,1,.028.226v.211a4.664,4.664,0,0,1,0,.667,5.471,5.471,0,0,0,.568-.123V289.316h11.916Zm-207.133-1.76c.369.6.759,1.192,1.16,1.764h49.868c.048-.159.1-.318.139-.477s.071-.258.1-.4c.071-.3.123-.6.171-.9ZM282.438,230.21c-.028-.445-.06-.91-.079-1.394h-3.781a2.137,2.137,0,0,0,.036.23c.048.266.083.524.123.794.028.187.056.365.075.544l.024.2h3.63Zm-3.38,59.1a.857.857,0,0,0-.091-.111.568.568,0,0,0-.1-.1,2.306,2.306,0,0,1-.322-.4,2.808,2.808,0,0,1-.151-.242c-.1-.175-.2-.365-.3-.58,0-.024-.024-.052-.04-.079s-.079-.167-.115-.254H267.154v-56.97h11.685l-.024-.2c-.024-.175-.052-.357-.075-.544-.04-.25-.075-.508-.123-.794a1.622,1.622,0,0,0-.036-.23H267.154v-43.83h-.028a.544.544,0,0,0-.159.02,1.214,1.214,0,0,0-.187.04l-.139.052-.179.071-.115.048c-.286.127-.62.3-1.017.493-.568.266-1.148.528-1.732.771l-.346.143-.429.167c-.282.115-.568.218-.854.314q-.278.1-.572.191c-.342.107-.691.207-1.037.29-.171.048-.342.083-.516.119s-.342.072-.512.1-.342.06-.516.079-.31.044-.469.056v40.887H144.941v-50.09l-.238.143c-1.418.794-3.277.647-4.508,1.7-1.589,1.339-1.307,3.813-.771,5.8.048.175.1.346.143.524a1.042,1.042,0,0,0,.044.167h0a.686.686,0,0,0,.028.123,2.111,2.111,0,0,1,.064.274l.048.226.024.147a.32.32,0,0,0,.02.135.8.8,0,0,1,0,.135,2.2,2.2,0,0,1,.028.357v.04a3.575,3.575,0,0,1-2.443,3.13,3.468,3.468,0,0,1-1.259.143v37.046h-7.237l.163,1.764h7.09v56.978h-12.77c-.048.294-.1.6-.171.9-.032.131-.064.262-.1.4s-.091.318-.139.477h13.183V301.24h1.35l.834-.028h.369c.5-.024.949-.052,1.346-.075l.532-.04.338-.024.489-.044h.3l.254.048h.091c.175.028.417.068.715.107l.377.056.211.028.6.079h.079l.929.115V289.316h26.612a19.076,19.076,0,0,1-1.128-1.764h-25.5V230.579H258.348v56.974h-4.29c-.4.218-.822.453-1.251.711,0,0,.155.083.433.246h0c.31.179.767.453,1.335.794h3.769v2.6c.318.242.647.5.969.759l.485.4c.576.481,1.148.993,1.7,1.517l.449.441c.187.187.373.4.548.568l.072.075q.214.234.417.465l.286.334c.163.2.322.4.473.6s.3.4.433.6.274.4.4.612a7.444,7.444,0,0,1,.4.755h.842l.075.159c.036.064.06.127.087.187.115.258.211.508.294.759.032.1.068.2.091.306a2.73,2.73,0,0,1,.079.31,2.157,2.157,0,0,0,.056.278c.012.091.028.187.04.274a1.471,1.471,0,0,1,.028.226v.211a4.664,4.664,0,0,1,0,.667,5.471,5.471,0,0,0,.568-.123V289.316h11.916Zm-207.133-1.76c.369.6.759,1.192,1.16,1.764h49.868c.048-.159.1-.318.139-.477s.071-.258.1-.4c.071-.3.123-.6.171-.9ZM282.438,230.21c-.028-.445-.06-.91-.079-1.394h-3.781a2.137,2.137,0,0,0,.036.23c.048.266.083.524.123.794.028.187.056.365.075.544l.024.2h3.63Zm-3.38,59.1a.857.857,0,0,0-.091-.111.568.568,0,0,0-.1-.1,2.306,2.306,0,0,1-.322-.4,2.808,2.808,0,0,1-.151-.242c-.1-.175-.2-.365-.3-.58,0-.024-.024-.052-.04-.079s-.079-.167-.115-.254H267.154v-56.97h11.685l-.024-.2c-.024-.175-.052-.357-.075-.544-.04-.25-.075-.508-.123-.794a1.622,1.622,0,0,0-.036-.23H267.154v-43.83h-.028a.544.544,0,0,0-.159.02,1.214,1.214,0,0,0-.187.04l-.139.052-.179.071-.115.048c-.286.127-.62.3-1.017.493-.568.266-1.148.528-1.732.771l-.346.143-.429.167c-.282.115-.568.218-.854.314q-.278.1-.572.191c-.342.107-.691.207-1.037.29-.171.048-.342.083-.516.119s-.342.072-.512.1-.342.06-.516.079-.31.044-.469.056v40.887H144.941v-50.09l-.238.143c-1.418.794-3.277.647-4.508,1.7-1.589,1.339-1.307,3.813-.771,5.8.048.175.1.346.143.524a1.042,1.042,0,0,0,.044.167h0a.17.17,0,0,0,.032.119,2.111,2.111,0,0,1,.064.274l.048.226.024.147a.32.32,0,0,0,.02.135.8.8,0,0,1,0,.135,2.2,2.2,0,0,1,.028.357v.04a3.575,3.575,0,0,1-2.443,3.13,3.468,3.468,0,0,1-1.259.143v37.046h-7.241l.163,1.764h7.09v56.982h-12.77c-.048.294-.1.6-.171.9-.032.131-.064.262-.1.4s-.091.318-.139.477h13.183V301.24h1.35l.834-.028h.369c.5-.024.949-.052,1.346-.075l.532-.04.338-.024.489-.044h.3l.254.048h.091c.175.028.417.068.715.107l.377.056.211.028.6.079h.079l.929.115V289.316h26.612a19.076,19.076,0,0,1-1.128-1.764h-25.5V230.579H258.348v56.974H239.025c.373.151.7.3.953.433,3.122,1.589,8.861,1.156,12.6.624l.667-.1h0c.31.179.767.453,1.335.794h3.769v2.6c.318.242.647.5.969.759l.485.4c.576.481,1.148.993,1.7,1.517l.449.441c.187.187.373.4.548.568l.072.075q.214.234.417.465l.286.334c.163.2.322.4.473.6s.3.4.433.6.274.4.4.612a7.444,7.444,0,0,1,.4.755h.842l.075.159c.036.064.06.127.087.187.115.258.211.508.294.759.032.1.068.2.091.306a2.724,2.724,0,0,1,.079.31,2.156,2.156,0,0,0,.056.278c.012.091.028.187.04.274a1.471,1.471,0,0,1,.028.226v.211a4.669,4.669,0,0,1,0,.667,5.478,5.478,0,0,0,.568-.123V289.316h11.916Zm-207.133-1.76c.369.6.759,1.192,1.16,1.764h49.868c.048-.159.1-.318.139-.477s.071-.258.1-.4c.071-.3.123-.6.171-.9Zm182.134,0H239.025c.373.151.7.3.953.433,3.122,1.589,8.861,1.156,12.6.624l.667-.1c-.278-.163-.433-.246-.433-.246C253.236,288.005,253.653,287.771,254.059,287.553Zm13.107,0V230.579h15.7c-.135-.127-.27-.254-.4-.369l-.1-.091-.23-.2c-.1-.087-.195-.171-.3-.25l-.25-.2-.274-.214q-.207-.171-.441-.334a1.067,1.067,0,0,0-.107-.079H267.154v-3.118c-.127.064-.246.131-.369.2l-.4.246a.021.021,0,0,1-.024.02.48.48,0,0,1-.083.052l-.242.183c-.079.056-.163.115-.242.179-.242.179-.481.4-.715.584l-.234.211-.461.417c-.616.576-1.219,1.172-1.843,1.724-.159.139-.314.278-.477.4a12.129,12.129,0,0,1-1.049.794,5.106,5.106,0,0,1-.453.29l-.262.131-.234.119h0a8.854,8.854,0,0,1-1.72.62v55.667H234.771a.882.882,0,0,0,.048.183c.131.528.262,1.057.4,1.589h23.141v61.065a1.415,1.415,0,0,1,.183,0h.179l.4.028.751.064,1.192.139a3.638,3.638,0,0,1,.548.075l.647.091h.087l1.053.179a1.2,1.2,0,0,1,.226.044l.5.091.735.147h0l1.764-.064h0l.242.056.3.068V289.344H302.6c.056-.588.111-1.192.167-1.764Zm35.6,0c-.056.592-.111,1.192-.167,1.764h15.22l1.041-1.764Zm18.855,0h-1.589v1.775h1.8Zm-54.455,0V230.579h15.7c-.135-.127-.27-.254-.4-.369l-.1-.091-.23-.2c-.1-.087-.195-.171-.3-.25l-.25-.2-.274-.214q-.207-.171-.441-.334a1.067,1.067,0,0,0-.107-.079H267.154v-3.118c-.127.064-.246.131-.369.2l-.4.246a.021.021,0,0,1-.024.02.48.48,0,0,1-.083.052l-.242.183c-.079.056-.163.115-.242.179-.242.179-.481.4-.715.584l-.234.211-.461.417c-.616.576-1.219,1.172-1.843,1.724-.159.139-.314.278-.477.4a12.129,12.129,0,0,1-1.049.794,5.106,5.106,0,0,1-.453.29l-.262.131-.234.119h0a8.854,8.854,0,0,1-1.72.62v55.667H234.771a.882.882,0,0,0,.048.183c.131.532.258,1.053.4,1.589H258.36v61.065h.361l.4.028.751.064,1.192.139a3.639,3.639,0,0,1,.548.075l.643.091h.087l1.053.179a1.2,1.2,0,0,1,.226.044l.5.091.735.147h0l1.764-.064h0l.242.056.3.068V289.344h36.4v-.131a1.3,1.3,0,0,0,0-.131c.048-.489.091-.969.139-1.454a.178.178,0,0,1,0-.048Zm36.586,0a.179.179,0,0,0,0,.048c-.048.485-.091.965-.139,1.454a1.3,1.3,0,0,1,0,.131v.131H317.3v-.1l.977-1.66Zm17.874,0h-1.589v1.775h1.8Z" transform="translate(-19.73 -97.264)" fill="#6c63ff" opacity="0.1"/><path d="M397.367,607.709l-11.4-.187-8.822-.151-18.033-.3h-.794l-15.177-.254h0l-30.342-.52-16.452-.274-2.053-.036H293.5l-1.541-.024h-.81l-8.536-.171-4.893-.083-1.311-.024h-.56l-8.961-.151-8.806-.143L187.151,604.2h-.969l-26.91-.449-1.684-.032h0l-12.9-.211-8.806-.147-7.944-.135h-.679L95.9,602.7h0l-10.407-.214-28.36-.477-2.872-.048H54.23l-5.89-.1L19.7,601.386c-.183-2.606-.246-5.227-.242-7.853q0-2.617.075-5.223l28.8.628,5.561.123H54l3.142.068,13.231.286,7.106.155,42.1.914,2.947.064,13.334.29,1.66.036,2.955.068,3.893.083h.3l12.631.274,18.06.4,1.12.024,43.187.937h.707l37.7.818,5.791.127.846.02h.842l1.327.028,1.66.04h0l7.447.159h.822l2.347.052h.965l.922.02,5.164.115,18.442.4h.83l1.243.028,50.809,1.1h.767l18.859.4,7.868.171.937.131,6.423.9c.7,1.235,1.37,2.467,1.986,3.7A51.767,51.767,0,0,1,397.367,607.709Z" transform="translate(-19.44 -391.861)" fill="#fff"/><path d="M397.367,615.636l-11.4-.187-8.822-.151-18.033-.3h-.794l-15.177-.254h0l-30.342-.52-16.452-.274-2.053-.036H293.5l-1.541-.024h-.81l-8.536-.171-4.893-.083-1.311-.024h-.56l-8.961-.151-8.806-.143-70.935-1.192h-.969l-26.91-.449-1.684-.032h0l-12.9-.211-8.806-.147-7.944-.135h-.679L95.9,610.627h0l-10.407-.214-28.36-.477-2.872-.048H54.23l-5.89-.1L19.7,609.313c-.183-2.606-.246-5.227-.242-7.853l28.88.576,5.958.115h.091l2.753.056,16.718.33,9.441.191,15.947.318,15.816.314h0l9.084.179h.191l9.966.195h.365l1.192.028,8.806.175h.179l4.564.087,1.553.036,2.84.052,25.909.516h1.041l77.314,1.533,8.806.179,7.515.147h.989l6.153.119,1.144.028h.914l18.573.369h.826l1.3.024,22.084.441h0l24.173.477h0l6.816.135H358l19.137.4,8.806.175,8.428.167a51.765,51.765,0,0,1,2.991,6.82Z" transform="translate(-19.44 -399.788)" fill="#d0d0db"/><path d="M657.855,444.818q-.365.23-.715.477-.751.5-1.47,1.053h0c-.794.6-1.557,1.247-2.3,1.914q-.655.6-1.287,1.231c-.334.326-.667.663-.993,1.009-.628.655-1.239,1.331-1.839,2.014l-.473.548q-.659.794-1.311,1.565c-.564.683-1.116,1.374-1.668,2.069-.794.993-1.589,1.986-2.359,2.979-.23.286-.457.568-.679.854-1.295,1.589-2.594,3.178-3.972,4.647l-34.727.068H594.5l-.131-.076h0l-.906-.524-.425-.246c-1.076-.628-2.153-1.255-3.225-1.867l-.258-.151c-1.513-.862-3.015-1.7-4.508-2.49q-1.35-.715-2.729-1.366a76.786,76.786,0,0,0-9.366-3.758,80.7,80.7,0,0,0-12.813-3.086q-2.653-.425-5.334-.663c-1.152-.1-2.312-.187-3.471-.242A81.959,81.959,0,0,0,523.5,454.16c-1.227.373-2.451.794-3.658,1.215-.226.075-.449.159-.667.238.04-.2.083-.4.127-.608.33-1.517,1.7-3.178,3.6-4.85.794-9.727,8.929-17.477,8.929-17.477l19.272-8.341.238-.159a46.7,46.7,0,0,1,8.806-4.739,5.306,5.306,0,0,1,.818-.238c3.523-.7,6.617-3.515,9.135-5.056,1.1-.675,1.3-3.1,1.168-5.624a3.554,3.554,0,0,0-.032-.584l-.572.032-.111-.294-.143-.4c-.024-.068-.044-.131-.068-.195h-.528c-.226-.592-.433-1.156-.616-1.7a32.831,32.831,0,0,1-1.295-4.734,1.344,1.344,0,0,1-.032-.183,14.179,14.179,0,0,1-.23-2.161,8.18,8.18,0,0,1,.1-1.629,5.284,5.284,0,0,1,.163-.687l-.365.036h0l-.953.083-.29.024-.127.083-6.033.536-.576.052-.294.024a.174.174,0,0,0,0-.044v-.032l-.556.052-.3.024a4.992,4.992,0,0,0,.107-.632l-.624.06-.23.02a46.006,46.006,0,0,1-6.355-.079,181.459,181.459,0,0,1-18.243-2.459s-11.288,2.526-19.463-1.358a14.34,14.34,0,0,1-4.115-2.864h0a13.179,13.179,0,0,1-2.737-4.051,10.125,10.125,0,0,1-.612-1.835,5.465,5.465,0,0,1-.147-1.764c.7-7.944,22.132-2.586,26.521-.338a6.9,6.9,0,0,0,.775.338c3.253,1.192,8.456.794,11.936.3l.679-.1c-.147-.091-.266-.155-.342-.2l-.1-.056a20.705,20.705,0,0,1,5.855-2.494,14.169,14.169,0,0,1,3.813-.4,22.012,22.012,0,0,1,3.916.338h.091a4.611,4.611,0,0,0,.985-.258,2.28,2.28,0,0,0,1.525-2.78,7.03,7.03,0,0,1,.425-3.932s1.954.516,1.728-1.986h0a8.241,8.241,0,0,0-.322-1.525c-.083-.278-.155-.556-.214-.838v-.048a18.631,18.631,0,0,1,.643-8.385l.985-1.263.052-.155.036-.1-.524-2.745h0l-.127-.651-.278-9.406s-.143-14.744,4.647-16.849l-.052-.667-.091-1.156a11.592,11.592,0,0,1-3.281-1.589,2.908,2.908,0,0,1-.687-.759h0a1.279,1.279,0,0,1-.187-1,1.986,1.986,0,0,1,.636-.993,10.479,10.479,0,0,0,3.1-5.616s.512-.85,1.35-2.181c.056-.1.119-.195.183-.294-.882-3.178-1.907-6.419-2.852-9.227-.087-.262-.171-.524-.258-.775-.056-.159-.107-.318-.159-.473-.1-.266-.187-.524-.274-.794l-.322.064a20.485,20.485,0,0,1-3.65.33,20.066,20.066,0,0,1-19.621-24.471c.072-.314.147-.628.234-.933.044-.171.1-.334.151-.5a3.428,3.428,0,0,0-2.113.27c-.985.433-1.847,1.156-2.808,1.652a6.688,6.688,0,0,1-3.05.7,6.779,6.779,0,0,1-1.934-.278h0a6.783,6.783,0,0,1-2.232-1.12,1.937,1.937,0,0,0,.429-.032h.119l.334-.06h.1c.139-.036.278-.072.4-.115l.071-.02c.119-.04.234-.079.35-.127l.1-.04.4-.171h0a4.2,4.2,0,0,0,.4-.215.8.8,0,0,1,.076-.048l.33-.211.064-.044c.131-.087.258-.179.4-.278a9.3,9.3,0,0,0,1.3-1.235,24.107,24.107,0,0,0,3.126-5.1l2.383-4.735c.477-.941.973-1.9,1.533-2.78A11.854,11.854,0,0,1,544,261.564a7.062,7.062,0,0,1,1.466-1.223,7.634,7.634,0,0,1,3.527-1.053c1.95-.139,4.012.175,5.982.111a24.312,24.312,0,0,0,7.773-1.867,23.279,23.279,0,0,1,3.646-1.192h0a8.025,8.025,0,0,1,1.478-.171,9.533,9.533,0,0,1,4.147,1.025,16.206,16.206,0,0,1,5,3.7c.207.218.4.445.6.679.485.576.949,1.192,1.414,1.764.4.485.771.965,1.192,1.43,1.938,2.2,4.294,3.908,6.184,6.164s3.3,5.287,2.78,8.289v.068h0c-.036.211-.087.4-.143.624a.707.707,0,0,1-.056.2c-.04.143-.079.286-.127.425l-.072.222c-.052.147-.1.3-.155.449a10.752,10.752,0,0,0-.826,3.352,4.4,4.4,0,0,0,0,.512h0a20.424,20.424,0,0,0,1.231,4.369,7.84,7.84,0,0,1,.373,2.022c0,.127,0,.254,0,.377v.369a3.867,3.867,0,0,1-.091.576h0a.2.2,0,0,1,0,.064.366.366,0,0,1,0,.083v.044a2.764,2.764,0,0,1-.087.278.113.113,0,0,1-.032.091l-.1.218-.056.1a1.727,1.727,0,0,1-.123.2.638.638,0,0,1-.052.087,2.709,2.709,0,0,1-.211.266c-.048.052-.1.1-.147.143l.588.357c.052.036.1.064.159.1a94.694,94.694,0,0,0,9.763,1.688,9.6,9.6,0,0,1,3.047,1.112,27.335,27.335,0,0,1,12.377,12.9c1.859,3.972,4.055,8.289,5.211,9.135a12.363,12.363,0,0,1,2.709,3.519c.35.608.667,1.215.937,1.764.612,1.223,1,2.161,1,2.161s9.135,6.176,8.019,12.214c0,0,1.986,6.752,3.944,8.707s6.474,17.711,6.474,17.711,1.688,2.947,1.549,5.187,1.692,7.026,1.692,7.026.4,1.986.914,3.972q.238.906.512,1.764a6.22,6.22,0,0,0,1.108,2.383c1.12.981.56,3.086.56,3.086a35.768,35.768,0,0,0,2.113,4.635,3.436,3.436,0,0,1,.4,1.632,18.17,18.17,0,0,1-.111,2.721s-.1.794-.167,1.875c-.1,1.74-.1,4.194.588,5.164a3.88,3.88,0,0,1,.516,1.668c.33,2.383.06,6.037,1.033,6.9,1.267,1.12.707,11.372.707,11.372S656.119,437.819,657.855,444.818Z" transform="translate(-312.709 -191.645)" fill="url(#a)"/><path d="M633.788,660.786l-1.339,1.1-6.458,5.295-1.307,1.072-5.676,4.659s-15.951,9.29-32.5,17.143c-1.775.842-3.575,1.668-5.334,2.467-1.152-.1-2.312-.187-3.471-.242a81.96,81.96,0,0,0-27.839,3.384,17.657,17.657,0,0,1-.079-3.714c.794-9.664,8.857-17.357,8.857-17.357l19.065-8.274h.02l8.782-3.809,13.258-5.755,4.2.5,7.634.91Z" transform="translate(-339.086 -433.117)" fill="#95b6f0"/><path d="M633.788,660.786l-1.339,1.1-6.458,5.295-1.307,1.072-5.676,4.659s-15.951,9.29-32.5,17.143c-1.775.842-3.575,1.668-5.334,2.467-1.152-.1-2.312-.187-3.471-.242a81.96,81.96,0,0,0-27.839,3.384,17.657,17.657,0,0,1-.079-3.714c.794-9.664,8.857-17.357,8.857-17.357l19.065-8.274h.02l8.782-3.809,13.258-5.755,4.2.5,7.634.91Z" transform="translate(-339.086 -433.117)" opacity="0.05"/><path d="M692.057,757.112l-.052.4-.254,1.907-.036.3-.02.1-.1.727-.139,1.057-.258-.151c-1.513-.862-3.015-1.7-4.508-2.49q-1.35-.715-2.729-1.366a76.776,76.776,0,0,0-9.366-3.757l.862-1.589,5.334,1.565,7.578,2.232,1.39.4,1.108.326Z" transform="translate(-414.362 -490.685)" fill="#5f546f"/><path d="M692.057,757.112l-.052.4-.254,1.907-.036.3-.02.1-.1.727-.139,1.057-.258-.151c-1.513-.862-3.015-1.7-4.508-2.49q-1.35-.715-2.729-1.366a76.776,76.776,0,0,0-9.366-3.757l.862-1.589,5.334,1.565,7.578,2.232,1.39.4,1.108.326Z" transform="translate(-414.362 -490.685)" opacity="0.05"/><path d="M668.92,655.59l10.315,4.182,1.537,4.6-10.6-4.182Z" transform="translate(-403.217 -395.157)" fill="#ccccd8"/><path d="M668.92,655.59l10.315,4.182,1.537,4.6-10.6-4.182Z" transform="translate(-403.217 -395.157)" opacity="0.05"/><path d="M772.661,761.07c-.794.993-1.589,1.986-2.359,2.979-.23.286-.457.568-.679.854-1.295,1.589-2.594,3.178-3.972,4.647l-.163.175-43.819.083h0l-.294-.175-.131-.075h0l-.906-.524-.425-.246c-1.076-.628-2.153-1.255-3.225-1.867l-.258-.151.04-.961.032-.822h0l.06-1.493h0l.024-.624.647-.024Z" transform="translate(-439.577 -496.001)" fill="#5f546f"/><path d="M736.682,772.619h-.417l-3.928-.056H732.2l-5.215-.068-.906-.524L726,768.75v-.834l-.032-1.43,9.874-.516.421-.02.111,1.791.052.838.25,4Z" transform="translate(-445.328 -498.943)" opacity="0.1"/><path d="M735.632,772.573h0l-4.294-.052-4.981-.068h0l-.906-.524-.425-.246-.075-2.975v-.834l-.032-1.438,10.327-.556v.048l.115,1.779.052.838.25,3.992Z" transform="translate(-444.695 -498.901)" fill="#5f546f"/><path d="M735.632,772.573h0l-4.294-.052-4.981-.068h0l-.906-.524-.425-.246-.075-2.975v-.834l-.032-1.438,10.327-.556v.048l.115,1.779.052.838.25,3.992Z" transform="translate(-444.695 -498.901)" fill="#fff" opacity="0.1"/><path d="M717.359,762.822l55.44-1.752c-.794.993-1.589,1.986-2.359,2.979-.23.286-.457.568-.679.854l-38.925.715h-.4l-10.009.183h-.4l-2.836.052a1.345,1.345,0,0,1-.179,0,1.492,1.492,0,0,1-.357-.056l.032-.822h0l.06-1.493h0l.024-.624Z" transform="translate(-439.716 -496.001)" opacity="0.1"/><path d="M773.664,750.54l-.473.548q-.659.794-1.311,1.565c-.564.683-1.116,1.374-1.668,2.069-.794.993-1.589,1.986-2.359,2.979l-39.668.731h-.4l-10,.195h-.4l-2.78.04h-.135a2.02,2.02,0,0,1-.354-.032h-.087a2.121,2.121,0,0,1-1.636-2.355l.127-.87.119-.846.068-.473.139-.949.036-.266Z" transform="translate(-437.137 -489.654)" fill="#ccccd8"/><path d="M773.074,735.8l1.887.659q-.655.6-1.287,1.231c-.334.326-.667.663-.993,1.009-.628.655-1.239,1.331-1.839,2.014l-.473.548q-.659.794-1.311,1.565l-57.99,1.589h-.715l-.294-1.124L707.7,734.24l56.068,1.319h0l3.221.076Z" transform="translate(-434.315 -479.828)" fill="#5f546f"/><path d="M676.7,693.832c-.794.6-1.557,1.247-2.3,1.914q-.655.6-1.287,1.231c-.334.326-.667.663-.993,1.009-.628.655-1.239,1.331-1.839,2.014l-.473.548c-9.66,1.1-26.656,2.574-42.051,1.644a57.285,57.285,0,0,0-17.262,1.513h0l-.667.171-.548.147c-.512.139-1.017.286-1.509.437-1.192.358-2.3.743-3.352,1.144l-1.057.417A76.779,76.779,0,0,0,594,702.264a80.7,80.7,0,0,0-12.813-3.086q-2.653-.425-5.334-.663c-1.152-.1-2.312-.187-3.471-.242a81.959,81.959,0,0,0-27.839,3.384c-1.227.373-2.451.794-3.658,1.215l.024-.119c.334-1.509,1.684-3.178,3.575-4.81,6.113-5.366,17.778-10.665,17.778-10.665l6.216-2.637h0l3.92-1.668,8.806-3.734,18.613-7.9.2-.083,4.31-1.827,3.94-1.676a31.376,31.376,0,0,1,8.377-1.049h1.088a7.054,7.054,0,0,1,.818.032h.508c.671.036,1.343.091,2.022.159.238.02.477.048.719.075h.127l.532.064c.222.024.445.056.667.087l.663.1c.445.068.89.139,1.339.218q1,.179,2.022.4l1,.214c1.017.222,2.038.473,3.062.743l.953.262.639.183.794.234c1.871.556,3.745,1.192,5.6,1.855l1,.373.953.357a.107.107,0,0,0,.044.02c.568.219,1.136.445,1.7.675,3.205,1.3,6.355,2.729,9.326,4.222l1.025.512.528.274c.354.179.7.361,1.049.544l1.037.548.508.274.508.278.5.274q1.759.965,3.4,1.934c.314.183.624.365.929.552l.457.27c.6.365,1.192.727,1.771,1.092.286.175.568.354.854.536.417.266.83.532,1.235.794.266.171.528.346.794.52l.4.262c.254.171.5.338.751.508l.425.294c.282.191.56.4.826.576.135.1.266.195.4.286l.123.087.973.715h.02l.6.453.58.449c.4.29.739.58,1.076.862.167.135.33.27.485.4l.234.2.23.2.4.369.278.266c.1.091.195.179.282.266a12.913,12.913,0,0,1,.989,1.08c.234.3.449.58.647.85Z" transform="translate(-333.755 -439.118)" fill="#95b6f0"/><path d="M562.335,582.014a9.906,9.906,0,0,1-3.392.7c-8.075.6-24.356-2.518-24.356-2.518s-20.5,4.6-26.072-8.226,20.634-6.415,25.516-3.9c3.118,1.589,8.857,1.156,12.6.628,2.109-.3,3.575-.628,3.575-.628S567.49,579.5,562.335,582.014Z" transform="translate(-313.779 -377.347)" fill="#c27099"/><path d="M644.146,522.483l-4.6,22.442-13.66,1.192-6.836.6c1.672-6.971-12.821-14.919-12.821-14.919,7.384-4.461,11.709-2.383,13.239-2.51a.863.863,0,0,0,.3-.036c1.446-.214,2.884-1.072,2.49-3.027a7.026,7.026,0,0,1,.4-3.908s2.649.7,1.394-3.483.417-9.2.417-9.2l.977-1.255,1.533-4.739,6.272,6.411Z" transform="translate(-373.148 -340.821)" fill="#4c4981"/><path d="M644.146,522.839l-4.6,22.445-13.66,1.192-6.836.608c1.672-6.975-12.821-14.923-12.821-14.923,7.384-4.461,11.709-2.383,13.239-2.506l.3-.04c1.446-.214,2.884-1.072,2.49-3.027a7.026,7.026,0,0,1,.4-3.908s2.649.7,1.394-3.483.417-9.2.417-9.2l.977-1.255L627,504l6.272,6.415Z" transform="translate(-373.148 -341.038)" opacity="0.05"/><path d="M629.937,583.181c-.671.485-1.327.929-1.95,1.346l-6.832.6c1.672-6.971-12.825-14.919-12.825-14.919,7.388-4.46,11.713-2.383,13.242-2.51a.874.874,0,0,0,.3-.036c1.855,2.355,4.194,5.076,5.561,5.755C629.937,574.677,635.375,579.276,629.937,583.181Z" transform="translate(-374.414 -379.213)" opacity="0.1"/><path d="M621.355,587.836a9.907,9.907,0,0,1-3.392.7c.727-5.958-9.68-12.48-12.313-14.021,2.109-.3,3.575-.628,3.575-.628S626.511,585.325,621.355,587.836Z" transform="translate(-372.799 -383.168)" opacity="0.1"/><path d="M627.837,583.181c-.675.485-1.327.929-1.95,1.346l-6.836.6c1.672-6.971-12.821-14.919-12.821-14.919,7.384-4.46,11.709-2.383,13.239-2.51a.863.863,0,0,0,.3-.036c1.859,2.355,4.194,5.076,5.561,5.755C627.837,574.677,633.271,579.276,627.837,583.181Z" transform="translate(-373.148 -379.213)" fill="#4c4981"/><path d="M627.837,583.882q-1.013.727-1.95,1.346l-6.836.608c1.672-6.975-12.821-14.923-12.821-14.923,7.384-4.461,11.709-2.383,13.239-2.506a1.9,1.9,0,0,0,.3-.04c1.859,2.355,4.194,5.08,5.561,5.755C627.837,575.378,633.271,579.977,627.837,583.882Z" transform="translate(-373.148 -379.636)" opacity="0.05"/><path d="M683.776,347.309s-26.215,36.665-24.118,29.972c1.378-4.4-2.439-17.012-5.207-25.127-1.442-4.214-2.6-7.217-2.6-7.217s15.058-12.968,14.78-10.041c-.071.763,1.053,1.986,2.78,3.34C674.244,342.122,683.776,347.309,683.776,347.309Z" transform="translate(-400.648 -238.843)" fill="#c27099"/><path d="M669.374,338.253a19.955,19.955,0,0,1-14.943,13.9c-1.442-4.214-2.6-7.217-2.6-7.217s15.058-12.968,14.78-10.041C666.546,335.66,667.67,336.867,669.374,338.253Z" transform="translate(-400.636 -238.843)" opacity="0.1"/><path d="M637.478,297.579a19.84,19.84,0,1,1-5.81-14.128A19.939,19.939,0,0,1,637.478,297.579Z" transform="translate(-367.946 -204.587)" fill="#c27099"/><path d="M766.093,693.814c-.794.6-1.557,1.247-2.3,1.914q-.655.6-1.287,1.231c-.334.326-.667.663-.993,1.009a55.578,55.578,0,0,1-8.925-3.118h0a16.564,16.564,0,0,1-5.322-3.42c-3.575-3.92-15.34-14.124-38.528-17.206a107.832,107.832,0,0,0-16.837-.854q-1.168.024-2.363.076l-.361-2.133.2-.083,4.31-1.827,3.94-1.676a31.378,31.378,0,0,1,8.377-1.049h1.088a7.04,7.04,0,0,1,.818.032h.508c.671.036,1.342.091,2.022.159.238.02.477.048.719.075h.127l.532.064c.222.024.445.056.667.087l.663.1c.445.068.89.139,1.339.218.667.111,1.343.242,2.022.4l1,.214c1.017.222,2.038.473,3.062.743l.953.262.639.183.794.234c1.871.556,3.745,1.192,5.6,1.855l1,.373.953.357a.106.106,0,0,0,.044.02c.568.218,1.136.445,1.7.675,3.205,1.3,6.355,2.729,9.326,4.222l1.025.512.528.274c.354.179.7.361,1.049.544l1.037.548.508.274.508.278.5.274q1.759.965,3.4,1.934c.314.183.624.365.929.552l.457.27c.6.369,1.192.727,1.771,1.092.286.175.568.354.854.536.417.266.83.532,1.235.794.266.171.528.346.794.52l.4.262c.254.171.5.338.751.508l.425.294.83.647c.135.1.266.195.4.286l.123.087.973.715h.02l.6.453.58.449c.4.294.739.584,1.076.862.167.135.33.27.485.4l.234.2.23.2.4.369.278.266c.1.091.195.179.282.266a12.944,12.944,0,0,1,.989,1.08c.234.3.449.58.647.85Z" transform="translate(-423.151 -439.1)" opacity="0.1"/><path d="M741.785,486.171s1.986,12.79,3.722,19.7q-.751.5-1.47,1.053h0c-.794.6-1.557,1.247-2.3,1.914q-.655.6-1.287,1.231a57.948,57.948,0,0,1-6.7-2.034c-3.63-1.35-7-3.047-8.544-4.739-3.511-3.845-14.895-13.739-37.213-17.024a107.111,107.111,0,0,0-17.409-1.053c-1.017,0-2.049.044-3.1.091l-.163-.961-1.374-8-1.263-7.5v-.044l-.135-.83v-.048l-.056-.342-.242-1.434-.647-3.833-.3-1.811s-.02-.207-.048-.576v-.52a1.705,1.705,0,0,0-.024-.314.686.686,0,0,1,0-.222l-.024-.25a.634.634,0,0,1,0-.091c0-.127-.024-.266-.036-.4a.051.051,0,0,1,0-.024c-.024-.258-.052-.532-.079-.818-.02-.179-.04-.365-.06-.556-.079-.735-.167-1.537-.266-2.383-.091-.707-.187-1.438-.29-2.169-.028-.2-.056-.4-.087-.6a2.085,2.085,0,0,0-.052-.346h0a1.688,1.688,0,0,0-.044-.278c-.06-.4-.123-.755-.187-1.124a1.513,1.513,0,0,0-.04-.234c-.036-.191-.068-.4-.1-.564s-.087-.445-.131-.663a.086.086,0,0,0,0-.032,1.522,1.522,0,0,0-.06-.286c-.02-.1-.06-.266-.087-.4-.052-.234-.1-.465-.159-.679l-.075-.29c-.036-.151-.079-.3-.123-.445a6.849,6.849,0,0,0-.794-1.986h0a.855.855,0,0,0-.091-.111.569.569,0,0,0-.1-.1,2.307,2.307,0,0,1-.322-.4,2.782,2.782,0,0,1-.151-.242c-.1-.175-.2-.365-.3-.58,0-.024-.024-.052-.04-.079s-.079-.167-.115-.254c-1.93-4.333-4.369-15.32-4.369-15.32l-1.585-7.638h0l-.159-.838-.481-2.538v-.3h0l-.274-9.032s-.143-14.641,4.6-16.73l-.143-1.811s-3.69-1.092-4.107-2.757a1.192,1.192,0,0,1,.048-.759h0a2.189,2.189,0,0,1,.576-.794c.068-.064.135-.127.195-.195a10.371,10.371,0,0,0,2.872-5.382s.584-.969,1.521-2.459c2.923-4.643,9.294-14.331,12.142-15.387a22.772,22.772,0,0,0,6.554-3.9l.639.139h0a97.19,97.19,0,0,0,9.672,1.672,9.586,9.586,0,0,1,3.015,1.1A27.112,27.112,0,0,1,702.455,372.4c1.847,3.972,4.02,8.23,5.164,9.088a9.366,9.366,0,0,1,1.966,2.316c.369.568.723,1.192,1.041,1.764.941,1.74,1.589,3.313,1.589,3.313s9.064,6.133,7.944,12.126c0,0,1.954,6.693,3.9,8.647s6.415,17.568,6.415,17.568,1.672,2.927,1.533,5.164,1.672,6.975,1.672,6.975.29,1.482.715,3.178c.143.58.3,1.192.469,1.764a8.746,8.746,0,0,0,1.327,3.13c1.112.973.556,3.066.556,3.066a35.443,35.443,0,0,0,2.093,4.6,2.315,2.315,0,0,1,.318.937,14.894,14.894,0,0,1-.04,3.388s-.06.485-.119,1.192c-.135,1.692-.242,4.687.54,5.763a2.9,2.9,0,0,1,.4,1.053c.489,2.264.075,6.514,1.124,7.451C742.341,475.987,741.785,486.171,741.785,486.171Z" transform="translate(-401.076 -252.227)" fill="#4c4981"/><path d="M649.579,616.37s-.794,1.875-1.95,4.643c-2.284,5.481-5.958,14.466-7.547,19.2-2.383,7.11-11.987,11.292-11.987,11.292s-19.1,6.55-25.794,1.672,12.547-15.618,16.031-16.309,6.554-3.491,9.064-5.021c1.192-.723,1.315-3.487,1.12-6.212a52.509,52.509,0,0,0-.842-6.061Z" transform="translate(-369.934 -408.775)" fill="#c27099"/><path d="M789.1,449.857s7.249-3.209,10.327,1.811S789.1,449.857,789.1,449.857Z" transform="translate(-483.383 -307.791)" opacity="0.1"/><path d="M793.107,613.91s-50.047.417-40.57,6.832,10.875,9.477,21.889,6.411S793.107,613.91,793.107,613.91Z" transform="translate(-460.624 -407.293)" opacity="0.1"/><path d="M638.581,297.565a19.859,19.859,0,0,1-2.669,9.966,6.192,6.192,0,0,1-2.054-1.307,9.309,9.309,0,0,1-1.47-2.618,23.015,23.015,0,0,0-3.325-5.291c-.945-1.124-2.161-2.2-3.539-2.069-2.32.222-3.972,3.789-6.192,3.035-.675-.226-1.664-4.52-2.046-5.31-.906-1.867-1.41-1.327-3.062-.548-3.134,1.482-6.526,2.78-9.966,2.113a5.279,5.279,0,0,1-3.126-1.644,10.906,10.906,0,0,0-1.057-1.3,2.117,2.117,0,0,0-.647-.369,19.939,19.939,0,0,1,39.152,5.342Z" transform="translate(-369.049 -204.573)" opacity="0.1"/><path d="M601.688,288.413c2.228.751,3.877-2.812,6.2-3.039,1.374-.131,2.59.949,3.535,2.073a22.8,22.8,0,0,1,3.325,5.291,9.363,9.363,0,0,0,1.47,2.618,6.753,6.753,0,0,0,2.212,1.378l3.019,1.358c1.752.794,3.972,1.482,5.33,0,1.076-1.192.929-3.178.433-4.766s-1.279-3.178-1.239-4.854c.044-1.827,1.037-3.448,1.362-5.239.548-3-.866-6.057-2.737-8.3s-4.2-3.936-6.125-6.121c-1.092-1.243-2.046-2.629-3.178-3.845a16,16,0,0,0-4.949-3.674,9.338,9.338,0,0,0-4.107-1.017,15.287,15.287,0,0,0-5.076,1.362,24.056,24.056,0,0,1-7.7,1.851c-3.177.1-6.625-.794-9.417.933-1.986,1.227-3.178,3.539-4.286,5.739l-2.383,4.7a24.522,24.522,0,0,1-3.094,5.056,6.816,6.816,0,0,1-4.818,2.617,6.752,6.752,0,0,0,7.149.667c.953-.493,1.807-1.211,2.78-1.64a2.853,2.853,0,0,1,3.007.183,9.974,9.974,0,0,1,1.057,1.3,5.263,5.263,0,0,0,3.126,1.64c3.44.655,6.836-.632,9.97-2.109,1.648-.794,2.157-1.319,3.058.548C600.024,283.893,601.013,288.187,601.688,288.413Z" transform="translate(-350.983 -194.123)" fill="#63345e"/><path d="M690.239,616.37s-.794,1.875-1.95,4.643c-.933.461-1.922.969-2.872,1.462-2.542,1.323-4.8,2.534-4.8,2.534l-11.427.624a52.523,52.523,0,0,0-.842-6.061Z" transform="translate(-410.595 -408.775)" opacity="0.1"/><path d="M706.2,410.326l-2.78,9.759s-2.78,5.855-1.39,11.435-.838,14.081-.838,14.081l-4.333,11.153s-5.438,11.431-6.415,11.431c-.532,0-4,1.74-7.054,3.321-2.542,1.323-4.794,2.534-4.794,2.534l-12.829.7c-4.23-11.121-1.311-13.072.794-13.254a4.492,4.492,0,0,1,1.589.151l2.78-17.568V433.193s.838-10.454,2.649-13.8a31.56,31.56,0,0,0,2.645-6.963,26.406,26.406,0,0,1-2.093-5.3,38.014,38.014,0,0,1-.556-4.46s-1.954.278-2.51-15.618,11.292-20.213,11.292-20.213c14.224-4.321,22.449,7.666,28.161,16.313S706.2,410.326,706.2,410.326Z" transform="translate(-407.734 -257.807)" opacity="0.1"/><path d="M711.051,408.208l-2.78,9.755s-2.78,5.859-1.394,11.435-.834,14.081-.834,14.081l-4.322,11.153s-5.446,11.431-6.411,11.431c-.532,0-4,1.74-7.054,3.321-2.542,1.323-4.8,2.538-4.8,2.538l-5.72.31-1.251-7.424s-.735-9.668-2.057-14.259l1.362-8.6V431.075s.838-10.458,2.649-13.8a31.5,31.5,0,0,0,2.645-6.975A26.37,26.37,0,0,1,679,405a36.986,36.986,0,0,1-.556-4.456s-1.954.274-2.51-15.622,11.292-20.213,11.292-20.213c14.22-4.321,22.449,7.666,28.161,16.313S711.051,408.208,711.051,408.208Z" transform="translate(-414.26 -256.523)" opacity="0.1"/><path d="M704.107,408.208l-2.78,9.755s-2.78,5.859-1.394,11.435-.838,14.081-.838,14.081l-4.318,11.153s-5.438,11.431-6.419,11.431c-.528,0-4,1.74-7.05,3.321-2.542,1.323-4.8,2.538-4.8,2.538l-12.829.7c-4.226-11.121-1.307-13.068.775-13.254a4.492,4.492,0,0,1,1.589.151l2.78-17.564V431.075s.834-10.458,2.645-13.8a31.635,31.635,0,0,0,2.649-6.975,26.548,26.548,0,0,1-2.093-5.3,37.894,37.894,0,0,1-.556-4.457s-1.95.274-2.506-15.622,11.292-20.213,11.292-20.213c14.22-4.321,22.445,7.666,28.161,16.313S704.107,408.208,704.107,408.208Z" transform="translate(-406.477 -256.523)" fill="#4c4981"/><path d="M682.339,613.371c-2.542,1.323-4.8,2.534-4.8,2.534l-12.825.7c-4.23-11.121-1.311-13.072.771-13.254,3.07,2.216,7.062,5.263,7.316,6.284S678.24,612.247,682.339,613.371Z" transform="translate(-407.1 -400.927)" opacity="0.1"/><path d="M681.288,614.421c-2.542,1.323-4.8,2.538-4.8,2.538l-12.829.7c-4.226-11.121-1.307-13.068.775-13.254,3.07,2.22,7.062,5.263,7.316,6.284S677.189,613.3,681.288,614.421Z" transform="translate(-406.465 -401.56)" fill="#4c4981"/><g transform="translate(218.513 84.428)" opacity="0.1"><path d="M627.529,323.164c-1.343,1.489-3.575.794-5.33,0l-3.019-1.358a6.625,6.625,0,0,1-2.212-1.378,9.365,9.365,0,0,1-1.47-2.617,23.065,23.065,0,0,0-3.325-5.287c-.945-1.124-2.165-2.2-3.539-2.073-2.32.226-3.972,3.789-6.2,3.039-.671-.226-1.66-4.52-2.042-5.31-.906-1.867-1.41-1.327-3.062-.548-3.13,1.478-6.526,2.78-9.97,2.109a5.251,5.251,0,0,1-3.122-1.64,10.33,10.33,0,0,0-1.06-1.3,2.837,2.837,0,0,0-3-.183c-.977.433-1.827,1.148-2.78,1.64a6.665,6.665,0,0,1-4.321.6,6.033,6.033,0,0,1-3.527,1.386,6.752,6.752,0,0,0,7.15.667c.953-.493,1.807-1.211,2.78-1.64a2.853,2.853,0,0,1,3.007.183,9.972,9.972,0,0,1,1.057,1.3,5.263,5.263,0,0,0,3.126,1.64c3.44.655,6.836-.632,9.97-2.109,1.648-.794,2.157-1.319,3.058.548.4.794,1.37,5.084,2.046,5.31,2.228.751,3.877-2.812,6.2-3.039,1.374-.131,2.59.949,3.535,2.073a22.8,22.8,0,0,1,3.324,5.295,9.364,9.364,0,0,0,1.47,2.617,6.754,6.754,0,0,0,2.212,1.378l3.019,1.358c1.752.794,3.972,1.482,5.33,0a3.8,3.8,0,0,0,.794-2.78A1.289,1.289,0,0,1,627.529,323.164Z" transform="translate(-569.55 -306.278)"/><path d="M714.283,316.72a11.633,11.633,0,0,0-.7,2.665,14.1,14.1,0,0,0,.628-2.157C714.239,317.062,714.263,316.891,714.283,316.72Z" transform="translate(-656.372 -312.573)"/></g><path d="M506.9,750.45s-2.51,6.693-7.392,6.832Z" transform="translate(-308.817 -489.6)" opacity="0.1"/><path d="M271.8,422.713a42.856,42.856,0,0,0-3.178-5.561l-.524-.767h.35a1.708,1.708,0,0,0,1.211-.4h0c3.09-2.586-3.237-17.477-6.669-17.723-2.359-.183-6.975-.357-10.089-.461l-.85-.028c-.032-.167-.068-.33-.107-.5,0,0-3.92-.981-5.878-3.086s-4.337-4.627-4.337-4.627a9.17,9.17,0,0,1-2.868-1.871,1.708,1.708,0,0,1-.489-1.076c0-1.35-4.711-5.39-5.89-6.379l-.262-.222s-.421-2.109-1.958-2.526c-.636-.175-1.4-1.168-2.061-2.272a31.84,31.84,0,0,1-1.716-3.344s-1.93-2.256-3.467-4.461a19.077,19.077,0,0,1-1.128-1.764,4.767,4.767,0,0,1-.719-1.783c-.139-1.962-2.383-2.105-2.383-2.105s-1.954-3.932-1.954-4.917-2.939-2.947-2.939-2.947l-4.615-5.2s1.259-3.65-3.217-6.458-5.036-10.816-5.036-10.816l-3.932-8.532-.4-.874a2.4,2.4,0,0,0,.866-.83,2.546,2.546,0,0,0,.25-2.121,9.445,9.445,0,0,0-1.422-2.963c-.04-.06-.079-.111-.115-.159-.246-.338-.417-.528-.417-.528a1.74,1.74,0,0,0,.437-.4c.032-.044.064-.083.1-.135a2.157,2.157,0,0,0,0-2.22,4.262,4.262,0,0,0-.254-.469c-1.4-2.244-1.676-7.582-1.676-7.582l-3.36-9.41s-.441-5.7-3.515-9.294a8.182,8.182,0,0,0-2.915-2.22,6.562,6.562,0,0,0-2.7-2.081l-.048-.02c-.056-.346-.1-.7-.147-1.037s-.068-.568-.1-.854a21.794,21.794,0,0,0,2.987.2,21.449,21.449,0,0,0,2.915-.195,21.981,21.981,0,0,0,8.806-3.178,22.366,22.366,0,0,0,9.886-13.672h0a22.564,22.564,0,0,0,.628-5.291,22.079,22.079,0,0,0-.461-4.528,1.469,1.469,0,0,0-.06-.286c-.115-.548-.258-1.088-.417-1.621-.036-.115-.075-.23-.107-.346a10.927,10.927,0,0,0,3.178.365,1.887,1.887,0,0,0,1.053-.294,2.2,2.2,0,0,0,.608-.933c.191-.461.377-.937.532-1.422a1.1,1.1,0,0,0,.032-.107h0a9.427,9.427,0,0,0,.326-1.382,6.354,6.354,0,0,0,.071-1.16,4.416,4.416,0,0,0-.028-.6,4.2,4.2,0,0,0-.147-.794.579.579,0,0,1-.024.2,3.924,3.924,0,0,0-.214-.556c-1.124-2.332-4.369-3.245-5.036-5.743-.322-1.192-.028-2.709-.977-3.511a4.111,4.111,0,0,0-1.454-.608c-2.077-.663-3.7-2.256-5.5-3.491a11.122,11.122,0,0,0-1.9-1.041,5.168,5.168,0,0,0-4.23-.159c-.373.175-.719.4-1.092.6a6.355,6.355,0,0,1-3.483.429c-.794-.075-1.565-.222-2.328-.334-1.946-.3-4.226-.278-5.525,1.192a11.612,11.612,0,0,1-1.378,1.736c-1.076.83-2.6.429-3.928.163s-3.062-.155-3.575,1.1a10.965,10.965,0,0,0-.278,1.192,3.511,3.511,0,0,1-2.383,2.173,24.712,24.712,0,0,1-3.289.6,12.313,12.313,0,0,0-4.945,2.089,4.826,4.826,0,0,0-1.589,1.775.407.407,0,0,0-.052-.147,2.054,2.054,0,0,0-.155.949,1.791,1.791,0,0,0,.036.56,2.513,2.513,0,0,0,.127.4,5.41,5.41,0,0,1,.3.85,1.831,1.831,0,0,1,.044.353,2.6,2.6,0,0,1-.4,1.354,4.01,4.01,0,0,1-.258.4,15.543,15.543,0,0,1-1.053,1.271,5.164,5.164,0,0,0-.834,1.287l-.036-.028-.044-.064a2.614,2.614,0,0,0-.195,1.1,1.728,1.728,0,0,0,.143.842,1.5,1.5,0,0,0,.238.361,6.6,6.6,0,0,0,1.271.882c1.156.846,1.41,2.447,1.478,3.881a32.969,32.969,0,0,1-.326,6.355v.06c-.123.826-.457,2.359-.56,3.885h0v.179a.151.151,0,0,0,0-.04v.548a4.56,4.56,0,0,0,.794,3.05h0a1.875,1.875,0,0,0,.624.461,2,2,0,0,0,1.561-.242q-.369.929-.767,1.839h0c-.044.107-.091.215-.135.318q-.469,1.072-.969,2.093a10.935,10.935,0,0,0-5.815.62s-.842,6.458-3.638,7.15-13,9.271-13,9.271l-14.744,14.8-.365.365s-.369.516-.973,1.4c-2.256,3.261-7.781,11.443-9.656,15.888a48.349,48.349,0,0,0-2.093,7.217c-1.589,7.03-2.9,15.812-2.78,17.21h0c.119,1.7-.592,17.417-.342,23.581a13.327,13.327,0,0,0,.2,2.117,18.2,18.2,0,0,1,.191,3.05c.024,2.026-.032,4.766-.119,7.733-.246,8.011-.767,17.441-.767,17.441s2.383,6.887,3.638,8.961c.23.4.425.608.556.588.838-.139,3.217,5.759,3.217,5.759s.929-.036,2.542-.143l.477-.036c.123.274.25.544.4.818s.27.556.4.838.258.536.4.794c1.621,3.261,3.44,6.379,4.6,6.7,2.518.7,9.374,4.214,9.93,5.759s10.013,3.138,14.069,3.138H147.5v.719a4.032,4.032,0,0,0,3.94,3.694l3.062.048h.131l-.091.691-.02.147-.091.691-.838,6.355h.286l8.385.135h.882v-.266c.4-.123.818-.238,1.227-.358l.469-.131c7.547-2.165,15.093-4.222,22.712-4.81a50.847,50.847,0,0,1,7.622-.056c.4.028.794.064,1.192.1,8.19.794,16.146,3.674,24.1,6.1h.965l2.522.024h.4l8.067.075h.814l.167-6.574v-.842l2.653.048a4.012,4.012,0,0,0,3.1-1.39h0a3.972,3.972,0,0,0,.894-1.8,4.021,4.021,0,0,0,.091-.854V437.2a4.142,4.142,0,0,1-.274,5.2h0a8.153,8.153,0,0,1-1.676,1.45c-2.554,1.712-3.674,2.9-4.131,3.678h0c-.516.878-.2,1.235-.2,1.235H257.1c5.648-2.431,11.121-5.533,16.758-7.964a.22.22,0,0,0,.06-.032h0l.4-.163C275.629,437.623,276.388,428.269,271.8,422.713ZM177.585,352.1l.23-.588.441-1.12c.048.068.1.143.143.214,4.369,6.427,8.361,12.281,8.361,12.281l.735.826c-.4.048-.822.1-1.247.135-1.5.159-3.05.3-3.682.3a36.9,36.9,0,0,1-5.314-.981l-2.046-.933a11.468,11.468,0,0,0-.377-2.554h0l-.1-.306,2.419-6.161Zm37.845,38.591c3.44,2.447,7.706,5.227,11.967,7.9l-1.946.044-10.347.242c-3.857-.858-9.533-2.161-11-2.7-.711-.266-3.809-1.112-7.717-2.145-2.725-.719-5.843-1.533-8.806-2.3l-6.025-1.549a1.108,1.108,0,0,0-.246-.473,11.607,11.607,0,0,1-1.656-3,18.8,18.8,0,0,1-.862-2.9s-3.575-.4-4.182-1.589c-.187-.342-.107-.751.4-1.235a3.463,3.463,0,0,0,.866-1.192,4.288,4.288,0,0,0,.211-.651,5.434,5.434,0,0,0,0-2.089h0a7,7,0,0,0-.369-1.315,24.413,24.413,0,0,1,4.48,1.493c1.688.794,4.675.989,7.392.985,1.867,0,3.614-.1,4.707-.183h.191c.628-.052,1-.091,1-.091s1.192.211,2.907.425c1.1.127,2.415.262,3.789.342.524.036,1.057.06,1.589.071l.918.906.25.242c2.677,2.6,5.43,5.136,8.047,7.332,1.545,1.263,3.043,2.439,4.449,3.432Z" transform="translate(-71.173 -175.363)" fill="url(#b)"/><path d="M350.2,564.108l35.97-.838,12.547,6.971,1.954,16.313-33.043-9.481Z" transform="translate(-211.091 -339.506)" fill="#aea4b2"/><path d="M350.2,564.108l35.97-.838,12.547,6.971,1.954,16.313-33.043-9.481Z" transform="translate(-211.091 -339.506)" opacity="0.05"/><path d="M315.276,583.094c.417,0,3.765,4.182,3.765,4.182s12.686,2.232,15.753-.556-6.014-12.13-6.014-12.13l-8.087.421-6.554,3.9Z" transform="translate(-197.075 -383.59)" fill="#ffc4d0"/><path d="M270.3,562.66l6.137,2.78a36.927,36.927,0,0,0,5.3.977c1.394,0,7.249-.7,7.249-.7l5.3,2.093s-4.742,8.921-1.672,12.265c0,0-9.62.977-13.246-.7a32.988,32.988,0,0,0-8.5-2.232Z" transform="translate(-170.648 -376.399)" fill="#575989"/><path d="M272.41,563l6.133,2.78a36.929,36.929,0,0,0,5.3.977c1.394,0,7.253-.7,7.253-.7l5.295,2.105s-4.739,8.921-1.672,12.269c0,0-9.62.973-13.242-.7a32.96,32.96,0,0,0-8.508-2.232Z" transform="translate(-171.92 -376.604)" opacity="0.05"/><path d="M254.081,340.979s-40.415-9.2-33.178-10.458c4.623-.794,8.853-11.253,11.3-18.712,1.4-4.234,2.216-7.5,2.216-7.5s23.284,10.875,17.985,14.5c-2.034,1.394-2.26,4.981-1.764,8.873A69.574,69.574,0,0,0,254.081,340.979Z" transform="translate(-140.348 -220.664)" fill="#ffc4d0"/><path d="M312.282,759.58l-.028.707h0l-.079,1.8-.036.834-.25,5.958v.62h-2.471v-.02l-.417.02v-.461l-.552-.171c-7.944-2.431-15.908-5.314-24.1-6.1-.4-.036-.794-.071-1.192-.1a50.839,50.839,0,0,0-7.622.056c-7.61.588-15.181,2.645-22.712,4.81l-.469.131c-.4.119-.818.234-1.227.357l.1-6.1V760h2.629l21.635-.151,8.806-.064Z" transform="translate(-159.092 -495.103)" fill="#5f546f"/><path d="M239.894,755.71l-.282,1.946h0l-.163,1.148-.115.826h0l-.794,5.561-.469.131c-.4.119-.818.234-1.227.358v.266h-.882l-1.72.492H227.49l.083-.628.838-6.355h0l.111-.83.222-1.656,10.724-1.192Z" transform="translate(-144.842 -492.77)" opacity="0.1"/><path d="M238.832,755.71v.048l-.274,1.9L238.4,758.8l-.115.838-.858,5.724c-.4.119-.818.234-1.227.357v.266h-.882l-1.72.493-.4.111h0l-6.776-.111.925-6.995.1-.874.087-.7h0l.123-.957Z" transform="translate(-144.197 -492.77)" fill="#5f546f"/><path d="M388.372,667.726l-.028,1.553-.012.834v.008l-.1,5.894v.075l-8.5.338-1.553.064-.929.036-.421.016-.016-.457,0-.167-.2-5.99v-.008l-.028-.838-.064-1.914.421.02,2.761.127.417.024Z" transform="translate(-226.957 -402.137)" opacity="0.1"/><path d="M389.428,667.726l-.024,1.561-.016.834-.147,5.9-.02.631-8.854-.083-1.323-.008h-.008l-1.144-.016v-.016l-.016-.318-.008-.286-.2-5.994-.024-.838-.064-1.9v-.02l3.178.147Z" transform="translate(-227.595 -402.137)" fill="#5f546f"/><path d="M238.832,755.71v.048l-.274,1.9L238.4,758.8l-.115.838-.858,5.724c-.4.119-.818.234-1.227.357v.266h-.882l-1.72.493-.4.111h0l-6.776-.111.925-6.995.1-.874.087-.7h0l.123-.957Z" transform="translate(-144.197 -492.77)" fill="#fff" opacity="0.1"/><path d="M389.428,667.726l-.024,1.561-.016.834-.147,5.9-.02.631-8.854-.083-1.323-.008h-.008l-1.144-.016v-.016l-.016-.318-.008-.286-.2-5.994-.024-.838-.064-1.9v-.02l3.178.147Z" transform="translate(-227.595 -402.137)" fill="#fff" opacity="0.1"/><path d="M270.881,318.794c-2.034,1.394-2.26,4.981-1.764,8.873a22.183,22.183,0,0,1-18.438-15.888c1.4-4.234,2.216-7.5,2.216-7.5S276.18,315.167,270.881,318.794Z" transform="translate(-158.821 -220.646)" opacity="0.1"/><path d="M292.944,272.069a22.144,22.144,0,1,1-.933-6.387A22.144,22.144,0,0,1,292.944,272.069Z" transform="translate(-157.6 -187.863)" fill="#ffc4d0"/><path d="M291.944,265.7a23.383,23.383,0,0,0-5.346-1.072,1.74,1.74,0,0,0-1.192.3c-.52.441-.445,1.239-.5,1.918a3.916,3.916,0,0,1-1.986,3.058c-1.422.794-3.277.651-4.512,1.7-1.569,1.339-1.307,3.805-.767,5.8a7.547,7.547,0,0,1,.4,2.415,3.487,3.487,0,0,1-6.228,1.954c-1.12-1.426-.969-3.428-1.267-5.211a9.807,9.807,0,0,0-2.749-5.33,5.3,5.3,0,0,0-2.415-1.482,2.78,2.78,0,0,0-2.657.687c-.886.973-.731,2.443-.846,3.753a8.381,8.381,0,0,1-3.456,6.037c-1.863,1.323-4.174,1.811-6.319,2.6a3.854,3.854,0,0,0-.612.31A22.171,22.171,0,1,1,291.944,265.7Z" transform="translate(-157.533 -187.88)" opacity="0.1"/><path d="M241.72,273.236c2.149-.794,4.457-1.279,6.323-2.6a8.4,8.4,0,0,0,3.456-6.041c.111-1.307-.032-2.78.858-3.753a2.78,2.78,0,0,1,2.653-.683,5.255,5.255,0,0,1,2.427,1.482,9.834,9.834,0,0,1,2.757,5.326c.3,1.787.147,3.789,1.267,5.215a3.491,3.491,0,0,0,6.228-1.958,7.638,7.638,0,0,0-.4-2.411c-.54-1.986-.794-4.457.767-5.8,1.231-1.049,3.09-.922,4.512-1.7a3.936,3.936,0,0,0,1.986-3.062c.06-.679-.02-1.478.5-1.914a1.775,1.775,0,0,1,1.192-.3c3,.028,5.843,1.684,8.838,1.517a1.879,1.879,0,0,0,1.049-.3,2.145,2.145,0,0,0,.608-.925c.794-1.843,1.418-3.992.548-5.8-1.12-2.312-4.369-3.217-5.021-5.7-.318-1.192-.028-2.689-.977-3.483a4.039,4.039,0,0,0-1.446-.608c-2.069-.655-3.69-2.24-5.485-3.46s-4.143-2.113-6.109-1.192c-.4.175-.719.4-1.092.592-1.768.854-3.849.4-5.791.091s-4.214-.27-5.509,1.192a11.689,11.689,0,0,1-1.374,1.724c-1.072.822-2.594.425-3.916.159s-3.05-.151-3.575,1.1a9.811,9.811,0,0,0-.282,1.192,3.478,3.478,0,0,1-2.383,2.153,24.175,24.175,0,0,1-3.281.6,12.337,12.337,0,0,0-4.925,2.077c-1.029.735-2.03,1.879-1.76,3.114.1.433.338.818.429,1.251.274,1.271-.794,2.383-1.652,3.36s-1.589,2.5-.727,3.479a6.559,6.559,0,0,0,1.271.874c1.148.842,1.4,2.431,1.47,3.857a32.452,32.452,0,0,1-.33,6.355c-.274,1.8-1.557,6.975.818,8.043C237.029,276.93,240.294,273.752,241.72,273.236Z" transform="translate(-147.577 -178.711)" fill="#ae757a"/><path d="M287.641,577.05s-5.164.278-4.739,2.232S287.641,577.05,287.641,577.05Z" transform="translate(-178.23 -385.073)" fill="none"/><path d="M286.025,684.65h0a.22.22,0,0,1-.06.032c-5.656,2.431-11.121,5.533-16.758,7.964-.5.214-1,.425-1.509.632a44.277,44.277,0,0,1-10.955,3.042,40.914,40.914,0,0,1-11.677-.294c.127-1.541.429-3.769,1.14-4.615h0a17.6,17.6,0,0,1,3.65-3.011,6.925,6.925,0,0,0,2.157-2.117h0a3.9,3.9,0,0,0,.183-3.758,6.87,6.87,0,0,0-.4-.727,5.921,5.921,0,0,0-.842-1.053H182.512s-16.17-.111-22.886-.139h-2.208c-4.043,0-13.528-1.533-14.085-3.066s-7.388-5.021-9.9-5.72c-1.255-.346-3.281-3.944-4.985-7.447-.274-.556-.536-1.108-.794-1.648-.127-.266-.25-.528-.365-.794V661.9c-.5-1.088-.933-2.077-1.259-2.84l-.167-.4c-.032-.076-.064-.147-.087-.214a2.348,2.348,0,0,0-.1-.234h0l-.091-.222c-.143-.338-.222-.532-.222-.532l62.32-23.832,4.941,1.255c.242.064.489.127.747.187l6.327,1.621c2.987.771,6.1,1.589,8.806,2.288,3.73.985,6.657,1.779,7.344,2.042,1.442.54,7.15,1.835,10.978,2.685h0c2.105.469,3.65.794,3.65.794s4.925.961,11.364,2.268l1.251.254,1.668.338c.334.063.671.135,1.009.207h0c1.144.23,2.308.469,3.483.715l2.526.524c2.7.56,5.378,1.128,7.857,1.672l1.922.421.743.163.735.163c2.852.643,5.231,1.215,6.752,1.64a10.464,10.464,0,0,1,1.533.564c3.36,1.521,6.216,4.707,8.293,7.646a42.788,42.788,0,0,1,3.69,6.268C287.67,672.575,287.2,681.2,286.025,684.65Z" transform="translate(-83.277 -419.18)" fill="#aea4b2"/><path d="M244.373,675s-2.649,11.713-10.875,15.888S244.373,675,244.373,675Z" transform="translate(-147.224 -444.118)" opacity="0.1"/><path d="M296.392,693.23s-8.921,5.164-7.666,8.925Z" transform="translate(-181.683 -455.107)" opacity="0.1"/><path d="M498.694,730.44s-2.51,10.6-7.944,10.724Z" transform="translate(-303.536 -477.537)" opacity="0.1"/><path d="M288,664.549l-.036,2.4-8.746-.139-2.979-.052-56-.929-1.978-.032-8.945-.151.33-2.486L220.8,661.9l-.278,1.95,58.836-.413-.032.707Z" transform="translate(-126.167 -398.96)" opacity="0.1"/><path d="M299.328,755.525l-84.38-1.4a4.012,4.012,0,0,1-3.94-3.912l-.048-1.871H303.4v3.178a4.012,4.012,0,0,1-4.075,4.008Z" transform="translate(-134.878 -488.328)" fill="#ccccd8"/><path d="M187.491,639.314a30.915,30.915,0,0,0-4.743,4.6c-1.533,2.089-9.91,5.839-9.91,5.839-10.613,11.066-35.4,13.9-44.442,14.577-.274-.556-.536-1.108-.794-1.648-1.331-2.848-2.312-5.259-2.312-5.259l62.32-23.832,4.937,1.255a10.056,10.056,0,0,0,.918,1.394,1.1,1.1,0,0,1,.246.469C194.2,638.579,187.491,639.314,187.491,639.314Z" transform="translate(-83.235 -419.156)" opacity="0.1"/><path d="M181.083,463.539c.465,1.879-6.24,2.6-6.24,2.6a30.708,30.708,0,0,0-4.743,4.6c-1.533,2.093-9.89,5.855-9.89,5.855-10.76,11.217-36.1,13.973-44.812,14.6-1.9.139-3.011.175-3.011.175s-2.383-5.855-3.205-5.716S105,476.17,105,476.17s1.394-25.095.7-28.026.278-23.562.143-25.512,2.51-18.668,4.878-24.261S121.3,381.24,121.3,381.24l15.074-15.066s10.176-8.508,12.964-9.2,3.622-7.11,3.622-7.11c6.693-2.78,14.641,3.066,14.641,3.066,6.971-.139,6.272,1.116,6.272,1.116l4.047.838.1,1.124,5.036,54.626-5.958,15.093-2.844,7.225a11.391,11.391,0,0,1-.278,7.388c-1.533,3.9,1.112,8.5,1.112,8.5s1.672,3.491-.556,5.561,3.765,2.78,3.765,2.78a15.593,15.593,0,0,0,2.51,5.859,1.192,1.192,0,0,1,.266.5Z" transform="translate(-71.004 -247.671)" fill="#575989"/><path d="M221.052,597.06s-2.78,5.3,2.228,6.133,17.985-.556,19.657-.556S221.052,597.06,221.052,597.06Z" transform="translate(-140.497 -397.135)" opacity="0.1"/><path d="M220.81,552.48c.7,1.255,15.757,13.942,20.912,16.174Z" transform="translate(-140.815 -370.262)" opacity="0.1"/><path d="M247.84,530s7.547,13.5,10.037,15.618.417-7.547.417-7.547Z" transform="translate(-157.109 -356.711)" opacity="0.1"/><path d="M194.49,433.14s19.1,12.408,18.271,21.19S194.49,433.14,194.49,433.14Z" transform="translate(-124.949 -298.323)" opacity="0.1"/><path d="M137.321,533.88S132.443,572.5,171.2,571.8C171.2,571.8,139.553,560.091,137.321,533.88Z" transform="translate(-90.368 -359.05)" opacity="0.1"/><path d="M482.239,674.557c-5.581-.143-21.329-5.859-21.329-5.859l.091-.433L463.555,656l3.178.107c3.106.1,7.7.278,10.057.453C480.567,656.846,487.816,674.692,482.239,674.557Z" transform="translate(-285.549 -432.665)" fill="#ffc4d0"/><path d="M257.185,366.4l5.052,54.626-5.958,15.093c-4.639-6.784-9.882-14.426-11.348-16.476-2.78-3.9-8.5-23-8.5-23s-1.672-16.873,9.62-25.794C250.949,367.011,254.607,366.137,257.185,366.4Z" transform="translate(-150.177 -258.068)" opacity="0.1"/><path d="M438.331,670.763a14.12,14.12,0,0,1-4.175,5.164s-7.285-4.218-15.546-9.306C424.79,667.879,432.369,669.436,438.331,670.763Z" transform="translate(-260.05 -439.066)" opacity="0.1"/><path d="M461.873,668.71l-.743-.433L463.688,656l3.178.107C468.554,664.023,461.873,668.71,461.873,668.71Z" transform="translate(-285.681 -432.665)" opacity="0.1"/><path d="M265.3,366.927s-4.739-7.11-16.027,1.815-9.62,25.794-9.62,25.794,5.716,19.1,8.5,23,19.236,28.034,19.236,28.034,17.286,19.657,28.578,27.605,31.509,19.661,31.509,19.661,6.971-4.882,4.882-13.107c0,0-3.9-.973-5.855-3.066s-4.325-4.6-4.325-4.6-3.344-1.394-3.344-2.927-6.133-6.554-6.133-6.554-.421-2.093-1.954-2.51-3.765-5.561-3.765-5.561-5.164-5.994-5.295-7.944-2.383-2.089-2.383-2.089-1.954-3.9-1.954-4.882-2.927-2.927-2.927-2.927l-4.6-5.164s1.255-3.622-3.205-6.411-5.021-10.724-5.021-10.724l-4.321-9.342a2.455,2.455,0,0,0,1.116-2.927,9.815,9.815,0,0,0-1.954-3.626s1.676-.973.278-3.205-1.672-7.527-1.672-7.527L271.7,378.4S271.011,369.437,265.3,366.927Z" transform="translate(-152.119 -256.792)" fill="#575989"/><path d="M333.84,525.374s14.5-3.765,10.176-.7S333.84,525.374,333.84,525.374Z" transform="translate(-208.95 -352.776)" opacity="0.1"/><path d="M328.92,566.824s11.014-1.95,8.5.56S328.92,566.824,328.92,566.824Z" transform="translate(-205.984 -378.474)" opacity="0.1"/><path d="M274.16,403.65s14.78,3.9,18.271,12.13Z" transform="translate(-172.975 -280.547)" opacity="0.1"/><g transform="translate(84.442 68.87)" opacity="0.1"><path d="M234.991,290.27c-.068-1.422-.322-3.015-1.47-3.853a8.2,8.2,0,0,1-1.271-.874l-.048-.064a1.906,1.906,0,0,0,.187,2.014,6.559,6.559,0,0,0,1.271.874,3.818,3.818,0,0,1,1.346,2.606C235,290.739,235,290.5,234.991,290.27Z" transform="translate(-232.007 -278.184)"/><path d="M237.817,268.329a3,3,0,0,0,.175.512,2.113,2.113,0,0,0,.115-1.215,2.713,2.713,0,0,0-.171-.516A2.093,2.093,0,0,0,237.817,268.329Z" transform="translate(-235.484 -267.11)"/><path d="M340.138,272.93a11.6,11.6,0,0,1-.929,3.209,2.149,2.149,0,0,1-.6.925,1.906,1.906,0,0,1-1.049.294c-2.995.167-5.839-1.486-8.838-1.517a1.767,1.767,0,0,0-1.192.3c-.52.441-.441,1.239-.5,1.914a3.932,3.932,0,0,1-1.986,3.062c-1.422.794-3.281.651-4.512,1.7s-1.342,2.9-1.037,4.611a3.622,3.622,0,0,1,1.192-2.657c1.231-1.053,3.09-.922,4.512-1.7a3.936,3.936,0,0,0,1.986-3.062c.06-.679-.02-1.478.5-1.914a1.752,1.752,0,0,1,1.192-.3c3,.028,5.843,1.684,8.838,1.517a1.879,1.879,0,0,0,1.049-.3,2.144,2.144,0,0,0,.608-.925C340.039,276.457,340.619,274.59,340.138,272.93Z" transform="translate(-284.657 -270.618)"/><path d="M268.432,306.181a3.575,3.575,0,0,1-3.789-1.192c-1.12-1.426-.969-3.424-1.267-5.215a9.875,9.875,0,0,0-2.757-5.326,5.307,5.307,0,0,0-2.419-1.482,2.78,2.78,0,0,0-2.653.687c-.89.961-.747,2.443-.858,3.75a8.393,8.393,0,0,1-3.456,6.041c-1.867,1.323-4.175,1.811-6.323,2.606-1.426.528-4.691,3.694-6.089,3.062a2.4,2.4,0,0,1-1.263-1.811c-.06,1.66.211,3.229,1.4,3.765,1.4.628,4.663-2.538,6.089-3.066,2.149-.794,4.457-1.279,6.323-2.606a8.385,8.385,0,0,0,3.456-6.037c.111-1.307-.032-2.78.858-3.754a2.78,2.78,0,0,1,2.653-.683,5.279,5.279,0,0,1,2.419,1.478,9.858,9.858,0,0,1,2.757,5.33c.3,1.787.147,3.785,1.267,5.211a3.487,3.487,0,0,0,6.228-1.954,5.39,5.39,0,0,0-.187-1.589A3.575,3.575,0,0,1,268.432,306.181Z" transform="translate(-235.349 -282.639)"/></g><path d="M56.692,531.3a3.657,3.657,0,0,0-.481.929c-.032.079-.064.171-.091.262a.73.73,0,0,0-.171-.06,2.383,2.383,0,0,0-.794-.068v-.318c.032-1.14-.1-2.729-1.192-2.057s-.3,1.728.373,2.427l.175.171c-.616.441-.731,1.458-.834,2.518A6,6,0,0,1,52.088,538l-.167.187a2.181,2.181,0,0,0-1.744-.449c-.024-.1-.052-.191-.079-.294-.485-1.752-1.493-4.786-2.78-5.449l.167-.214c.548-.715,1.16-1.775.254-2.046s-.989.921-.937,1.811a1.377,1.377,0,0,0,.024.318,1.335,1.335,0,0,0-.941.465l-.139-.167c-.735-.87-2.085-2.244-2.494-1.192-.4.969.794,2.228,1.644,2.959l.052.044c-.564,2.276,1.887,4.135,3.205,4.945l.171.1a19.9,19.9,0,0,0-2.943,6.161l5.1.91s3.376-2.911,2.943-5.648h.036c3.372-.675,4.139-4.274,3.614-6.411l.06-.024a3.762,3.762,0,0,0,1.561-1.192A1.253,1.253,0,0,0,56.692,531.3Z" transform="translate(-33.734 -356.526)" fill="#6c63ff"/><path d="M56.692,531.3a3.657,3.657,0,0,0-.481.929c-.032.079-.064.171-.091.262a.73.73,0,0,0-.171-.06,2.383,2.383,0,0,0-.794-.068v-.318c.032-1.14-.1-2.729-1.192-2.057s-.3,1.728.373,2.427l.175.171c-.616.441-.731,1.458-.834,2.518A6,6,0,0,1,52.088,538l-.167.187a2.181,2.181,0,0,0-1.744-.449c-.024-.1-.052-.191-.079-.294-.485-1.752-1.493-4.786-2.78-5.449l.167-.214c.548-.715,1.16-1.775.254-2.046s-.989.921-.937,1.811a1.377,1.377,0,0,0,.024.318,1.335,1.335,0,0,0-.941.465l-.139-.167c-.735-.87-2.085-2.244-2.494-1.192-.4.969.794,2.228,1.644,2.959l.052.044c-.564,2.276,1.887,4.135,3.205,4.945l.171.1a19.9,19.9,0,0,0-2.943,6.161l5.1.91s3.376-2.911,2.943-5.648h.036c3.372-.675,4.139-4.274,3.614-6.411l.06-.024a3.762,3.762,0,0,0,1.561-1.192A1.253,1.253,0,0,0,56.692,531.3Z" transform="translate(-33.734 -356.526)" opacity="0.1"/><path d="M47.038,534.122l-.592,1.74a8.841,8.841,0,0,1-.751-.6c-.834-.731-2.022-1.986-1.644-2.959.4-1.041,1.76.334,2.494,1.192C46.843,533.852,47.038,534.122,47.038,534.122Z" transform="translate(-34.22 -357.874)" fill="#6c63ff"/><path d="M53.792,531.778a8.229,8.229,0,0,1-.58.683,8.776,8.776,0,0,1-.107-.918c-.048-.89.044-2.077.937-1.811S54.336,531.063,53.792,531.778Z" transform="translate(-39.715 -356.527)" fill="#6c63ff"/><path d="M71.589,532.277a7.433,7.433,0,0,1-.071,1.033,6.988,6.988,0,0,1-.743-.663c-.675-.7-1.418-1.779-.373-2.427S71.621,531.137,71.589,532.277Z" transform="translate(-49.835 -356.752)" fill="#6c63ff"/><path d="M78.78,534.5a3.809,3.809,0,0,1-1.561,1.192,4.442,4.442,0,0,1-.524.191l-.7-.993a6.752,6.752,0,0,1,.29-.957,3.659,3.659,0,0,1,.5-.929A1.244,1.244,0,0,1,78.78,534.5Z" transform="translate(-53.523 -358.22)" fill="#6c63ff"/><path d="M49.15,535.9c.3.346.493.616.493.616l-.592,1.74a8.84,8.84,0,0,1-.751-.6,3.428,3.428,0,0,1,.675-1.533C49.031,536.043,49.094,535.968,49.15,535.9Z" transform="translate(-36.825 -360.268)" opacity="0.1"/><path d="M53.807,534.584a8.226,8.226,0,0,1-.58.683,8.773,8.773,0,0,1-.107-.917A1.192,1.192,0,0,1,53.807,534.584Z" transform="translate(-39.731 -359.333)" opacity="0.1"/><path d="M53.778,541.982l-1.482.651a8.821,8.821,0,0,1-.794-.445c-1.553-.957-4.683-3.368-2.586-6.208s3.849,2.256,4.536,4.766C53.667,541.469,53.778,541.982,53.778,541.982Z" transform="translate(-36.774 -359.812)" fill="#6c63ff"/><path d="M72.13,536a1.192,1.192,0,0,1,.814-.369,7.435,7.435,0,0,1-.071,1.033A7,7,0,0,1,72.13,536Z" transform="translate(-51.19 -360.105)" opacity="0.1"/><path d="M77.235,537.842a4.465,4.465,0,0,1-.524.191L76,537.047a6.752,6.752,0,0,1,.29-.957A2.5,2.5,0,0,1,77.235,537.842Z" transform="translate(-53.523 -360.382)" opacity="0.1"/><path d="M65.329,544.464l-.25.044c-4.965.755-1.636-1.922-1.636-1.922s.226-.207.528-.544a5.734,5.734,0,0,0,1.589-2.888c.159-1.609.338-3.118,2.236-2.673S70.028,543.522,65.329,544.464Z" transform="translate(-45.295 -360.57)" fill="#6c63ff"/><rect width="9.485" height="2.494" transform="translate(10.458 196.255)" fill="#d4dfec"/><rect width="12.396" height="8.707" transform="translate(8.949 188.148)" fill="#d4dfec"/><rect width="9.485" height="2.494" transform="translate(10.458 196.255)" opacity="0.1"/><rect width="12.396" height="8.707" transform="translate(8.949 188.148)" opacity="0.1"/><rect width="9.485" height="2.494" transform="translate(11.082 196.255)" fill="#d4dfec"/><path d="M58.444,549.2c.211.743.322,1.255.322,1.255l-1.482.651a8.807,8.807,0,0,1-.794-.445,3.817,3.817,0,0,1,1.954-1.462Z" transform="translate(-41.762 -368.285)" opacity="0.1"/><path d="M65.329,553.023l-.25.044c-4.965.755-1.636-1.922-1.636-1.922s.226-.207.528-.544A3.289,3.289,0,0,1,65.329,553.023Z" transform="translate(-45.295 -369.129)" opacity="0.1"/><path d="M49.53,557.322s2.78-9.93,6.677-6.883-1.589,7.793-1.589,7.793Z" transform="translate(-37.567 -368.681)" fill="#6c63ff"/><circle cx="0.314" cy="0.314" r="0.314" transform="translate(13.052 177.416)" opacity="0.1"/><circle cx="0.314" cy="0.314" r="0.314" transform="translate(13.028 178.869)" opacity="0.1"/><circle cx="0.314" cy="0.314" r="0.314" transform="translate(22.068 177.702)" opacity="0.1"/><circle cx="0.314" cy="0.314" r="0.314" transform="translate(14.795 185.157)" opacity="0.1"/><circle cx="0.314" cy="0.314" r="0.314" transform="translate(21.42 180.117)" opacity="0.1"/><circle cx="0.314" cy="0.314" r="0.314" transform="translate(18.199 183.338)" opacity="0.1"/><circle cx="0.314" cy="0.314" r="0.314" transform="translate(14.116 178.039)" opacity="0.1"/><circle cx="0.314" cy="0.314" r="0.314" transform="translate(21.21 178.635)" opacity="0.1"/><circle cx="0.314" cy="0.314" r="0.314" transform="translate(20.146 181.05)" opacity="0.1"/><circle cx="0.314" cy="0.314" r="0.314" transform="translate(16.873 184.923)" opacity="0.1"/><circle cx="0.314" cy="0.314" r="0.314" transform="translate(16.197 183.39)" opacity="0.1"/><circle cx="0.314" cy="0.314" r="0.314" transform="translate(14.585 179.934)" opacity="0.1"/><rect width="9.485" height="0.91" transform="translate(11.082 196.255)" opacity="0.1"/><rect width="12.396" height="8.707" transform="translate(9.572 188.148)" fill="#d4dfec"/><circle cx="0.314" cy="0.314" r="0.314" transform="translate(17.29 186.325)" opacity="0.1"/><circle cx="0.314" cy="0.314" r="0.314" transform="translate(15.419 186.718)" opacity="0.1"/></g></svg>